<?xml version="1.0" encoding="UTF-8" standalone="no"?><svg width="51" height="51" viewBox="0 0 51 51" fill="none" xmlns="http://www.w3.org/2000/svg">
<path d="M34.2081 30.9336L50.8198 24.8837L49.3949 20.9662L32.7831 27.0161L34.2081 30.9336Z" fill="white"/>
<path d="M2.31395 30.9326L18.9257 24.8827L17.5007 20.9652L0.888979 27.0151L2.31395 30.9326Z" fill="white"/>
<path d="M35.5801 26.0839L46.9432 12.5336L43.7516 9.85386L32.3885 23.4042L35.5801 26.0839Z" fill="white"/>
<path d="M7.95617 42.0411L19.3193 28.4907L16.1277 25.811L4.76458 39.3614L7.95617 42.0411Z" fill="white"/>
<path d="M34.3463 21.2003L37.4161 3.78033L33.313 3.05641L30.2433 20.4764L34.3463 21.2003Z" fill="white"/>
<path d="M18.3985 48.842L21.4682 31.422L17.3651 30.6981L14.2954 48.1181L18.3985 48.842Z" fill="white"/>
<path d="M30.8322 17.5918L24.786 0.969849L20.871 2.39569L26.9171 19.0176L30.8322 17.5918Z" fill="white"/>
<path d="M30.8357 49.5053L24.7896 32.8833L20.8745 34.3091L26.9207 50.9311L30.8357 49.5053Z" fill="white"/>
<path d="M25.9928 16.219L12.4508 4.84888L9.7727 8.04243L23.3147 19.4125L25.9928 16.219Z" fill="white"/>
<path d="M41.9399 43.8553L28.3979 32.4852L25.7198 35.6788L39.2618 47.0489L41.9399 43.8553Z" fill="white"/>
<path d="M21.1084 17.4558L3.69908 14.3842L2.97561 18.4897L20.3849 21.5613L21.1084 17.4558Z" fill="white"/>
<path d="M48.7335 33.412L31.3242 30.3404L30.6007 34.4459L48.01 37.5176L48.7335 33.412Z" fill="white"/>
</svg>
