<?xml version="1.0" standalone="no"?>
<!DOCTYPE svg PUBLIC "-//W3C//DTD SVG 20010904//EN"
 "http://www.w3.org/TR/2001/REC-SVG-20010904/DTD/svg10.dtd">
<svg version="1.0" xmlns="http://www.w3.org/2000/svg"
 width="493.000000pt" height="512.000000pt" viewBox="0 0 493.000000 512.000000"
 preserveAspectRatio="xMidYMid meet">

<g transform="translate(0.000000,512.000000) scale(0.100000,-0.100000)"
fill="#000000" stroke="none">
<path d="M0 5066 c0 -40 4 -55 16 -60 13 -5 15 -2 11 14 -3 11 -1 20 4 20 5 0
9 9 9 20 0 11 7 20 15 20 18 0 20 -17 2 -23 -6 -2 -9 -8 -5 -12 5 -5 17 0 27
9 11 10 25 15 30 11 6 -3 11 -1 11 4 0 6 -10 11 -21 11 -16 0 -20 5 -16 20 5
18 0 20 -39 20 l-44 0 0 -54z"/>
<path d="M645 5109 c-4 -5 1 -9 11 -9 14 0 15 -2 3 -17 -12 -15 -12 -16 3 -10
10 3 20 3 22 -2 6 -8 -24 -25 -62 -36 -12 -4 -20 -11 -17 -16 10 -15 -26 -23
-37 -8 -8 11 -9 10 -4 -4 4 -13 -7 -30 -41 -60 -26 -23 -68 -63 -93 -88 -25
-25 -53 -49 -63 -52 -10 -4 -15 -11 -12 -17 3 -5 1 -10 -4 -10 -11 0 -80 -70
-81 -82 0 -3 10 -4 23 -1 22 5 22 5 2 -10 -11 -8 -23 -13 -27 -10 -8 4 -38
-20 -38 -32 0 -3 -17 -22 -37 -41 -35 -33 -36 -35 -15 -41 22 -5 30 -27 13
-38 -6 -3 -15 3 -21 14 -10 20 -11 20 -30 1 -11 -11 -20 -26 -20 -34 0 -8 -5
-18 -10 -21 -5 -3 -10 -12 -10 -20 0 -17 40 -7 47 12 3 8 16 19 30 24 13 5 28
20 33 34 5 14 15 25 22 26 7 0 4 4 -7 9 -17 7 -16 9 10 9 27 1 33 6 45 43 16
44 49 73 57 51 3 -7 9 -13 14 -13 5 0 1 12 -8 27 -17 25 -17 27 -1 20 11 -4
17 -2 15 6 -1 7 6 11 15 11 13 -1 16 2 9 14 -12 21 32 64 56 55 10 -4 14 -2 9
5 -3 6 -1 14 5 17 5 4 8 13 5 21 -4 9 2 14 17 15 12 0 16 3 9 6 -17 7 -5 23
18 23 10 0 22 9 25 20 8 24 21 26 32 5 8 -13 11 -13 28 1 14 11 16 17 8 20
-22 9 -14 22 9 16 13 -3 19 -1 15 5 -4 6 -1 13 6 15 23 8 100 -1 107 -12 5 -8
9 -7 13 4 7 18 27 22 27 5 0 -5 -4 -7 -10 -4 -5 3 -10 -2 -10 -13 0 -15 7 -19
33 -19 17 -1 26 1 20 4 -24 9 -13 32 22 44 26 10 34 18 33 34 -2 11 1 20 7 20
5 0 8 -9 6 -20 -1 -11 0 -17 5 -13 4 4 13 3 20 -3 8 -7 14 -7 19 1 11 17 33
11 40 -11 6 -18 9 -19 23 -7 10 8 29 19 45 26 15 6 27 16 27 22 0 5 8 10 18
10 16 1 15 2 -2 15 -10 8 -22 12 -27 10 -4 -3 -10 -1 -13 4 -12 19 99 46 121
29 9 -7 15 -5 19 6 10 26 27 19 20 -9 -4 -15 -2 -25 4 -25 6 0 8 -5 4 -12 -4
-6 -3 -8 4 -4 6 3 17 -1 25 -9 21 -20 27 -19 27 6 0 15 -5 19 -22 17 -15 -2
-24 3 -26 15 -2 10 0 16 5 15 4 -2 19 5 32 14 22 16 18 16 -90 17 -80 1 -115
-2 -121 -11 -6 -10 -8 -10 -8 0 0 10 -42 12 -185 12 -102 -1 -187 -5 -190 -11z
m91 -14 c-8 -8 -17 -15 -20 -15 -3 0 -3 7 0 15 4 8 13 15 21 15 12 0 12 -2 -1
-15z m195 -73 c-7 -2 -18 1 -23 6 -8 8 -4 9 13 5 13 -4 18 -8 10 -11z"/>
<path d="M1283 5108 c-26 -13 -38 -38 -18 -38 14 0 16 -6 14 -27 0 -4 8 -10
18 -14 16 -7 16 -8 1 -8 -9 -1 -19 -5 -22 -10 -8 -13 4 -42 15 -35 5 3 7 10 4
15 -4 5 3 9 14 9 12 0 21 4 21 10 0 17 74 7 78 -11 3 -18 -63 -63 -79 -54 -15
10 -10 -12 6 -25 8 -7 15 -16 15 -20 0 -11 -48 -60 -60 -60 -5 0 -10 -4 -10
-10 0 -5 -9 -10 -20 -10 -11 0 -20 -6 -20 -12 0 -9 -3 -8 -10 2 -7 12 -10 11
-17 -7 -4 -12 -30 -33 -56 -47 -40 -22 -49 -23 -53 -11 -7 18 -24 20 -24 4 0
-20 -33 -39 -47 -27 -10 8 -13 6 -13 -4 0 -8 -9 -23 -20 -33 -18 -17 -20 -17
-20 -1 0 13 -6 11 -24 -11 -22 -24 -27 -26 -45 -16 -22 14 -35 3 -36 -27 0 -9
-11 -16 -26 -18 -17 -2 -29 -11 -32 -22 -4 -15 -12 -19 -36 -16 -17 2 -31 -1
-31 -5 0 -5 6 -9 13 -10 6 0 2 -4 -10 -9 -13 -5 -23 -14 -23 -19 0 -6 -7 -8
-15 -5 -9 4 -15 0 -15 -8 0 -8 -19 -22 -42 -31 -40 -16 -41 -18 -22 -32 22
-17 3 -21 -27 -5 -14 8 -18 17 -13 35 4 16 2 25 -6 25 -7 0 -10 -7 -6 -15 3
-8 1 -15 -4 -15 -6 0 -10 -7 -10 -15 0 -9 -6 -12 -16 -8 -9 3 -20 0 -25 -8
-14 -22 -11 -29 12 -29 19 0 20 -2 8 -16 -12 -15 -11 -16 8 -10 12 4 24 2 28
-3 9 -16 -45 -26 -68 -12 -10 7 -16 8 -13 2 4 -5 -1 -14 -10 -19 -15 -8 -15
-10 2 -16 10 -4 21 -1 25 6 11 17 21 5 13 -16 -4 -11 -13 -15 -28 -11 -34 10
-62 15 -48 9 6 -3 9 -10 6 -16 -4 -6 1 -8 15 -3 17 5 21 2 21 -14 0 -12 0 -24
0 -28 1 -10 -29 -12 -36 -2 -8 14 -40 11 -53 -5 -8 -10 -6 -19 9 -39 23 -29
25 -38 7 -33 -6 1 -9 1 -4 -1 12 -8 8 -31 -8 -37 -8 -3 -15 -1 -15 4 0 6 -5
10 -12 10 -6 0 -2 -10 10 -23 12 -13 22 -29 22 -35 0 -7 5 -12 11 -12 6 0 8 8
4 19 -7 24 4 51 21 51 8 0 14 5 14 11 0 8 4 8 14 0 11 -9 16 -9 21 0 4 6 3 14
-2 18 -5 3 -12 13 -15 22 -5 13 -2 16 13 12 10 -3 19 -10 19 -17 0 -6 11 2 25
18 14 16 25 35 25 41 0 13 28 30 43 27 4 -1 10 11 14 28 7 35 18 45 53 45 19
0 27 7 36 33 11 35 27 43 32 17 2 -9 -5 -24 -16 -33 -10 -9 -17 -23 -15 -29 3
-7 -3 -13 -13 -13 -14 0 -15 -3 -6 -12 9 -9 6 -19 -13 -44 -14 -18 -24 -37
-23 -43 2 -5 -5 -17 -14 -28 -49 -53 -59 -66 -83 -103 -14 -22 -41 -57 -59
-78 -81 -91 -257 -425 -326 -619 -13 -35 -27 -60 -32 -57 -5 4 -9 -4 -7 -17 1
-13 -1 -35 -4 -49 -19 -73 -58 -243 -66 -291 -10 -52 -10 -51 -5 21 3 41 7 84
10 95 4 16 3 17 -5 5 -6 -8 -11 -25 -11 -38 0 -12 -5 -21 -13 -20 -8 2 -11 -8
-10 -27 l2 -30 -14 25 c-13 24 -14 23 -8 -15 11 -63 9 -90 -5 -87 -9 1 -12
-104 -12 -501 0 -484 1 -504 19 -524 11 -12 18 -23 15 -26 -2 -2 2 -10 11 -17
12 -10 15 -10 15 4 0 9 5 16 11 16 6 0 8 -9 4 -20 -3 -11 -3 -20 2 -20 4 0 14
-19 21 -42 26 -84 84 -223 103 -246 10 -14 19 -31 19 -38 0 -8 5 -14 10 -14 6
0 10 -5 10 -11 0 -6 6 -16 13 -24 6 -7 20 -24 30 -37 9 -13 27 -36 40 -53 12
-16 29 -43 37 -59 8 -16 22 -31 31 -33 11 -3 15 -12 12 -24 -3 -10 0 -19 6
-19 5 0 8 -6 5 -13 -6 -16 448 -476 490 -497 16 -8 59 -43 95 -77 36 -35 73
-63 83 -63 9 0 18 -3 20 -7 6 -15 145 -102 173 -109 17 -4 50 -19 75 -33 25
-15 56 -31 70 -38 138 -64 179 -82 200 -88 14 -4 40 -18 59 -31 29 -20 32 -24
17 -30 -10 -4 -36 -1 -59 7 -23 8 -47 13 -54 11 -7 -1 -44 13 -82 33 -39 19
-76 35 -82 35 -6 0 -39 20 -73 44 -33 23 -97 63 -141 87 -67 36 -185 115 -245
162 -8 7 -28 18 -43 26 -15 8 -27 17 -27 21 0 8 -146 130 -156 130 -3 0 -12 7
-20 15 -21 21 -33 19 -43 -7 -11 -30 -5 -35 18 -14 16 14 19 15 24 2 4 -9 -1
-16 -10 -18 -13 -2 -10 -8 11 -28 65 -59 76 -72 76 -85 0 -19 19 -29 33 -16 9
7 26 -2 61 -35 27 -24 52 -44 57 -44 6 0 12 -7 16 -16 3 -8 12 -13 19 -10 8 3
13 2 12 -2 -3 -14 14 -42 23 -36 5 3 12 -1 15 -9 3 -9 13 -13 24 -10 12 3 24
-4 35 -21 10 -14 24 -26 31 -26 8 0 14 -4 14 -10 0 -5 11 -12 25 -16 14 -3 25
-11 25 -18 0 -20 109 -71 153 -71 38 0 42 -3 61 -42 15 -30 27 -42 43 -43 37
0 51 -10 46 -31 -6 -23 -5 -23 -47 -5 -32 13 -33 13 -28 -6 3 -15 10 -18 28
-14 13 4 24 2 24 -3 0 -5 8 -12 18 -14 12 -3 10 -5 -8 -7 -14 -1 -31 -2 -37
-1 -9 1 -13 -11 -12 -36 1 -21 3 -30 6 -21 5 18 40 34 51 23 4 -4 -2 -13 -12
-21 -11 -8 -16 -15 -10 -15 5 -1 16 -2 24 -3 8 0 14 -7 13 -13 -5 -25 17 -13
23 12 9 36 16 31 40 -22 20 -46 20 -48 3 -51 -11 -2 -19 -8 -19 -13 0 -5 -5
-9 -11 -9 -6 0 -8 7 -5 16 7 17 -9 44 -26 44 -5 0 -4 -10 3 -21 10 -20 9 -21
-12 -14 -13 4 -40 9 -59 12 -19 3 -40 10 -47 15 -7 5 -17 7 -22 4 -5 -4 -12
-2 -16 4 -3 5 -15 10 -26 10 -10 0 -27 4 -37 9 -50 25 -71 33 -79 28 -13 -8
-88 20 -86 32 2 6 -4 8 -12 5 -18 -7 -19 -26 -4 -41 9 -9 2 -11 -25 -9 -30 3
-36 0 -31 -12 4 -12 3 -13 -10 -2 -8 7 -12 16 -9 21 3 5 -1 9 -9 9 -8 0 -18 7
-21 16 -6 15 -9 15 -33 -1 -25 -17 -26 -17 -21 3 8 30 -17 50 -43 34 -11 -7
-19 -8 -19 -2 0 5 -10 10 -23 10 -31 0 -38 9 -26 31 13 25 4 24 -23 -1 -24
-23 -42 -26 -35 -7 2 6 10 11 17 9 6 -1 10 3 7 10 -2 7 -12 12 -22 10 -10 -2
-14 1 -10 7 10 17 -21 24 -45 11 -23 -12 -19 -25 7 -25 9 0 18 -6 21 -13 3 -9
-3 -11 -21 -7 -19 5 -28 2 -36 -14 -13 -23 -1 -34 24 -25 11 5 16 2 15 -7 -6
-41 0 -51 25 -45 20 5 23 3 18 -10 -5 -14 -3 -14 14 -3 11 7 28 9 37 6 15 -6
13 -11 -14 -37 -33 -32 -38 -45 -15 -36 11 4 15 0 13 -12 -2 -13 5 -17 32 -19
19 -1 28 1 19 3 -16 5 -44 53 -35 61 2 3 22 6 44 9 29 2 42 -1 46 -12 3 -8 11
-12 16 -9 8 5 8 11 0 20 -9 11 -7 12 9 8 12 -3 21 -9 21 -15 0 -5 14 -22 30
-38 l31 -30 302 0 c222 0 306 3 315 12 9 9 12 9 12 0 0 -9 181 -12 786 -12
738 0 788 1 800 18 12 16 14 16 30 0 16 -16 18 -16 30 0 10 14 15 15 25 5 17
-17 29 -16 29 2 0 10 10 15 32 15 30 0 31 0 13 -20 -18 -20 -17 -20 134 -20
84 0 150 3 148 8 -3 4 13 7 35 6 25 0 42 4 45 13 3 7 13 13 23 13 10 0 20 8
23 19 3 14 11 17 29 14 21 -4 27 0 36 26 11 32 7 61 -9 61 -5 0 -8 -6 -6 -13
1 -6 -5 -11 -13 -9 -8 2 -27 5 -42 7 -15 2 -32 6 -38 10 -6 4 -13 -7 -16 -24
-4 -17 -11 -31 -15 -31 -5 0 -7 11 -3 25 8 31 -11 33 -21 3 -6 -21 -8 -21 -12
-4 -4 14 -11 17 -33 12 -19 -3 -33 0 -41 10 -8 10 -14 11 -19 4 -4 -7 -15 -8
-31 -1 -21 8 -22 10 -6 16 9 4 17 11 17 17 0 5 -8 8 -17 6 -13 -2 -17 3 -15
16 2 11 -1 16 -10 13 -7 -2 -12 -12 -12 -21 1 -10 -6 -16 -17 -16 -10 0 -19 3
-19 8 0 9 37 42 47 42 7 0 28 26 44 53 9 16 8 18 -10 12 -16 -5 -20 -3 -15 10
6 13 2 15 -22 8 -34 -8 -72 -8 -82 2 -4 3 4 15 18 25 18 14 20 20 9 20 -8 0
-21 -6 -28 -13 -11 -10 -13 -9 -9 2 8 28 35 37 55 19 17 -16 22 -15 77 12 33
15 65 26 73 23 7 -3 13 0 13 6 0 6 5 11 11 11 5 0 7 -5 4 -10 -3 -6 -4 -10 0
-10 3 0 10 11 15 25 5 14 13 25 17 24 20 -3 34 2 28 11 -3 6 0 10 8 10 8 0 20
6 27 14 6 8 18 12 26 9 9 -3 14 1 14 11 0 9 6 16 13 15 6 -1 20 1 30 6 12 5
25 1 40 -11 12 -11 17 -12 11 -4 -20 28 -24 49 -8 43 8 -3 14 1 14 11 0 18 15
22 25 6 3 -6 11 -10 17 -10 6 0 6 6 -2 15 -11 13 -8 19 16 40 32 27 40 30 49
15 3 -6 17 -10 30 -10 13 0 26 -6 29 -12 3 -7 4 -4 1 7 -4 18 0 21 30 23 19 2
35 -2 35 -7 0 -15 50 6 78 31 12 12 22 18 22 13 0 -4 9 0 20 10 12 10 19 24
16 31 -3 8 0 11 8 8 7 -3 19 2 26 11 7 8 19 15 26 15 7 0 11 6 8 13 -3 8 7 19
23 28 34 17 53 34 53 48 0 13 31 30 47 24 7 -3 9 3 6 16 -3 12 -1 21 4 21 15
0 83 64 83 78 0 6 4 12 9 12 5 0 17 17 26 38 10 20 21 39 24 42 6 5 41 68 65
117 13 27 21 29 36 6 11 -17 11 -17 6 0 -3 9 0 17 6 17 7 0 6 5 -2 15 -9 11
-10 19 -1 28 27 33 -7 137 -45 137 -8 0 -11 6 -8 15 9 22 -25 72 -36 54 -6 -8
-2 -17 8 -25 9 -7 14 -16 9 -20 -4 -4 -13 -2 -19 4 -7 7 -26 11 -42 11 -17 -1
-23 -3 -13 -6 23 -6 22 -23 -2 -23 -12 0 -21 10 -25 26 -9 35 6 50 28 28 16
-15 19 -15 41 6 20 18 26 20 45 10 21 -11 22 -10 18 23 -3 27 -1 34 11 29 10
-4 13 -1 8 11 -4 11 -2 14 9 10 10 -4 17 2 21 16 3 12 11 20 18 17 6 -2 20 9
29 25 9 16 22 29 28 29 6 0 1 9 -11 20 l-23 19 29 -2 c18 -1 27 2 26 11 -2 6
3 12 10 13 6 1 1 4 -12 8 -14 4 -27 13 -29 20 -3 9 0 11 8 6 8 -5 11 -3 8 6
-3 8 -1 22 4 32 7 14 4 17 -17 17 -14 0 -25 -5 -25 -11 0 -5 4 -8 9 -5 5 4 4
-5 -2 -19 -12 -24 -12 -24 -15 -3 -4 23 15 94 30 115 5 6 9 41 9 77 0 37 5 66
10 66 6 0 8 3 5 8 -2 4 2 32 10 62 8 30 12 60 10 67 -3 7 -1 15 3 18 5 2 7 21
4 40 -3 20 0 42 6 49 6 7 9 21 5 30 -3 9 2 28 12 44 19 27 25 56 24 124 0 25
5 40 17 47 17 9 17 10 1 16 -13 5 -17 20 -17 71 0 35 4 66 9 69 4 3 6 -4 3
-15 -3 -11 0 -20 6 -20 15 0 14 67 -1 73 -10 3 -9 8 2 22 9 11 10 16 3 11 -7
-4 -14 -4 -14 1 -1 4 -3 17 -5 28 -12 73 -19 145 -14 145 3 0 6 9 7 20 1 11
-3 20 -8 20 -6 0 -7 5 -4 11 4 5 -1 19 -10 29 -9 10 -14 23 -11 29 4 5 2 12
-3 15 -5 3 -7 15 -4 25 3 10 0 22 -6 25 -6 4 -8 18 -5 32 4 14 2 24 -5 24 -6
0 -11 11 -11 24 0 14 -4 28 -10 31 -5 3 -17 32 -26 63 -25 88 -62 195 -128
368 -6 18 -18 39 -25 48 -7 8 -14 27 -15 41 0 13 -7 27 -15 30 -7 3 -11 11 -8
19 3 7 -3 19 -14 27 -10 7 -19 18 -19 24 0 16 -44 99 -59 111 -8 7 -11 18 -8
29 5 13 3 16 -8 11 -10 -3 -20 5 -30 24 -11 22 -12 30 -2 33 6 2 2 2 -10 0
-26 -4 -30 9 -8 31 8 8 11 17 6 21 -5 3 -12 -4 -16 -15 -9 -28 -28 -25 -20 3
4 14 3 17 -3 9 -6 -9 -15 -5 -35 18 -15 16 -32 30 -37 30 -6 0 -10 7 -10 15 0
8 -5 15 -10 15 -6 0 -8 15 -4 39 5 29 3 39 -10 44 -18 7 -32 -8 -16 -18 12 -7
13 -35 2 -35 -14 0 -32 72 -22 89 12 23 -15 60 -32 43 -18 -18 -27 -15 -21 8
3 11 0 20 -6 20 -6 0 -11 7 -11 15 0 8 -5 15 -11 15 -6 0 -9 -6 -6 -13 3 -8 1
-20 -4 -28 -7 -11 -9 -8 -9 9 0 13 -4 20 -10 17 -6 -3 -10 -2 -10 4 0 6 9 15
20 21 23 12 27 30 6 30 -8 0 -16 6 -19 13 -2 6 -7 -3 -11 -20 -9 -39 -18 -41
-36 -8 -8 16 -17 22 -24 16 -6 -5 -27 -13 -46 -18 -28 -8 -41 -6 -63 7 -16 10
-29 22 -30 26 -1 5 -8 9 -16 9 -23 0 -24 23 -2 30 14 4 28 -1 42 -14 24 -23
87 -46 96 -37 4 3 -1 6 -10 6 -9 0 -26 18 -37 40 -12 24 -27 40 -38 40 -14 0
-12 -4 8 -20 14 -10 22 -22 18 -25 -4 -4 -17 2 -29 14 -25 23 -49 28 -49 9 0
-7 -6 -4 -12 7 -7 11 -18 26 -25 33 -7 7 -17 20 -22 29 -13 23 -45 9 -38 -18
4 -13 1 -18 -6 -15 -7 3 -20 9 -29 12 -25 9 -22 22 5 27 15 3 12 5 -11 6 -45
1 -68 16 -76 44 -5 20 -11 23 -31 19 -15 -2 -25 0 -25 7 0 6 -9 11 -19 11 -11
0 -22 4 -25 9 -3 5 -26 18 -51 30 -25 12 -43 26 -40 31 3 5 -1 7 -9 4 -17 -7
-306 134 -306 149 0 11 65 0 99 -16 13 -7 23 -16 22 -21 -4 -14 23 -26 30 -14
4 6 13 9 20 6 8 -3 17 -6 22 -7 19 -3 77 -31 118 -57 24 -16 47 -28 51 -29 4
0 14 -9 21 -20 12 -15 18 -17 29 -8 17 15 65 -6 60 -26 -1 -7 3 -11 10 -8 7 2
41 -11 76 -30 35 -18 70 -33 77 -33 7 0 15 -3 17 -7 2 -5 15 -19 30 -32 25
-21 28 -22 43 -8 9 9 23 13 32 10 11 -5 14 -3 9 6 -5 8 -18 10 -32 7 -17 -5
-27 -1 -36 14 -7 11 -21 20 -31 20 -13 0 -17 5 -13 15 4 12 0 14 -18 9 -18 -4
-27 0 -35 14 -6 11 -7 22 -4 26 3 3 -3 6 -15 6 -11 0 -23 -6 -25 -12 -4 -10
-6 -10 -6 0 -1 6 -8 12 -16 12 -8 0 -12 6 -9 14 3 8 1 17 -5 20 -6 4 -8 13 -5
20 4 9 -5 16 -25 21 -17 4 -37 15 -43 24 -8 12 -43 25 -96 36 -50 11 -88 25
-95 35 -7 9 -30 25 -52 35 -22 11 -43 23 -46 28 -3 5 -9 8 -13 7 -20 -6 -46
10 -40 24 5 12 2 15 -11 9 -12 -4 -23 0 -31 11 -7 10 -16 16 -21 13 -4 -3 -14
1 -21 9 -11 12 -10 14 5 14 14 0 15 2 4 9 -7 5 -10 14 -7 20 5 7 -1 11 -13 11
-23 0 -28 -15 -8 -23 6 -3 2 -6 -11 -6 -12 -1 -25 6 -29 15 -4 11 -13 14 -29
10 -14 -4 -24 -2 -24 4 0 5 5 10 11 10 5 0 7 5 3 12 -5 8 -11 5 -20 -7 -8 -10
-17 -16 -20 -12 -4 3 1 13 10 22 20 20 21 35 2 35 -8 0 -17 -8 -19 -17 -3 -11
-5 -7 -6 10 -1 18 4 27 15 27 20 0 47 -27 39 -40 -3 -5 3 -10 14 -10 13 0 21
7 21 18 1 15 2 15 15 -2 8 -11 15 -14 15 -8 0 7 7 12 15 12 8 0 15 -4 15 -10
0 -5 9 -10 20 -10 11 0 20 -4 20 -8 0 -4 16 -9 36 -10 22 -2 33 1 29 8 -3 6 0
7 9 4 9 -3 14 -10 11 -14 -3 -5 9 -10 27 -12 19 -2 32 -8 31 -15 -2 -7 7 -18
19 -24 18 -10 20 -9 15 4 -5 13 -2 14 16 8 13 -5 21 -16 19 -26 -3 -13 1 -15
17 -10 11 3 36 -1 55 -10 19 -9 40 -14 45 -10 6 3 11 1 11 -6 0 -6 8 -9 20 -6
10 3 27 -1 37 -9 10 -7 33 -14 51 -14 17 0 32 -4 32 -9 0 -5 6 -8 13 -8 30 2
108 -26 103 -38 -3 -9 10 -14 42 -18 28 -3 52 -12 62 -24 14 -17 90 -67 90
-59 0 2 -20 25 -45 52 -30 33 -41 52 -34 59 7 7 15 4 24 -9 8 -10 18 -15 23
-12 13 8 46 -30 37 -43 -3 -6 1 -11 9 -11 12 0 14 5 6 24 -7 21 -6 23 11 19
10 -3 19 -8 19 -12 0 -4 16 -13 36 -20 27 -10 38 -10 44 -2 5 9 10 8 20 -4 8
-10 9 -15 1 -15 -6 0 -11 -5 -11 -11 0 -7 11 -9 29 -6 20 4 31 2 35 -8 9 -26
27 -17 20 10 -5 20 -3 25 14 25 15 0 19 -5 15 -20 -3 -11 -2 -27 1 -37 6 -15
8 -14 22 5 18 26 30 28 37 8 4 -10 1 -13 -9 -9 -8 3 -14 -1 -14 -10 0 -8 9
-17 21 -20 25 -7 16 -27 -12 -27 -28 0 -23 -17 7 -24 16 -4 31 -2 38 5 8 9 8
10 -1 5 -7 -4 -13 -3 -13 3 0 15 18 23 25 11 3 -5 14 -10 24 -10 14 0 17 -7
16 -31 l-2 -31 18 23 c12 16 15 28 8 41 -14 25 4 29 37 7 16 -10 43 -19 61
-19 32 0 51 -14 34 -24 -5 -4 -12 -3 -15 2 -9 14 -109 8 -114 -7 -3 -8 0 -11
6 -7 5 3 9 -2 8 -12 -1 -11 5 -16 16 -14 9 1 22 -6 30 -16 7 -10 23 -19 36
-19 13 -1 32 -13 43 -27 11 -14 28 -26 36 -26 9 0 24 -7 34 -16 16 -15 17 -14
12 7 -6 21 -39 78 -62 106 -6 6 -8 23 -5 37 2 14 0 26 -6 26 -5 0 -10 4 -10 9
0 14 79 9 91 -5 6 -8 9 -27 5 -44 -5 -25 -2 -30 15 -30 11 0 18 -4 15 -8 -2
-4 13 -23 35 -41 21 -19 39 -41 39 -50 0 -9 7 -25 15 -35 17 -22 20 -50 5 -41
-5 3 -10 2 -10 -4 0 -5 8 -14 18 -20 14 -8 15 -13 5 -30 -7 -12 -13 -23 -13
-26 0 -11 29 -4 33 8 3 6 3 -2 0 -19 -3 -18 0 -35 6 -38 6 -4 11 -12 11 -17 0
-5 -13 4 -30 21 -16 17 -30 35 -30 40 0 6 -5 10 -11 10 -10 0 -31 17 -89 71
-16 15 -19 15 -32 -1 -14 -15 -13 -18 3 -29 15 -8 19 -8 19 1 0 6 10 2 23 -10
13 -12 28 -22 35 -22 6 0 9 -7 6 -15 -4 -9 0 -15 8 -15 8 0 31 -18 51 -40 19
-22 33 -40 31 -40 -3 0 0 -9 6 -20 9 -17 7 -20 -14 -26 -18 -4 -35 2 -62 22
-20 16 -48 30 -63 32 -33 4 -35 7 -16 25 14 14 13 16 -12 14 -25 -2 -28 1 -26
25 1 20 -4 28 -20 31 -22 3 -22 4 2 14 20 8 21 11 8 16 -10 4 -17 2 -17 -3 0
-5 -16 -6 -37 -3 -25 4 -34 3 -29 -5 4 -6 13 -9 21 -5 11 4 15 -2 15 -20 0
-14 -4 -29 -10 -32 -15 -9 -12 -25 5 -25 8 0 15 -7 15 -15 0 -8 5 -15 11 -15
6 0 26 -16 44 -36 21 -22 39 -33 46 -28 8 4 9 3 5 -5 -5 -7 5 -17 27 -26 34
-14 71 -11 95 8 8 6 12 6 12 -2 0 -6 -4 -11 -10 -11 -5 0 -10 -4 -10 -10 0 -5
6 -10 14 -10 8 0 13 -8 12 -17 -3 -17 19 -42 36 -43 11 0 10 818 -1 825 -5 3
-13 -1 -18 -8 -8 -14 -45 -37 -58 -37 -4 0 -4 14 0 30 5 22 3 32 -9 36 -25 9
-19 24 9 24 14 0 25 -4 25 -10 0 -5 5 -10 10 -10 6 0 10 7 10 16 0 9 9 18 20
21 19 5 21 13 19 84 l-2 79 -473 0 c-415 0 -474 -2 -474 -15 0 -8 -4 -15 -10
-15 -5 0 -10 7 -10 15 0 13 -160 15 -1327 14 -916 0 -1335 -4 -1350 -11z
m3462 -48 c3 -11 11 -20 16 -20 15 0 10 -17 -7 -24 -24 -9 -36 2 -24 23 6 12
5 22 -2 29 -9 9 -9 12 -1 12 7 0 15 -9 18 -20z m-1095 -40 c0 -5 -2 -10 -4
-10 -3 0 -8 5 -11 10 -3 6 -1 10 4 10 6 0 11 -4 11 -10z m160 -4 c0 -2 -7 -9
-15 -16 -12 -10 -15 -10 -15 4 0 9 7 16 15 16 8 0 15 -2 15 -4z m-110 -16 c0
-5 -4 -10 -10 -10 -5 0 -10 5 -10 10 0 6 5 10 10 10 6 0 10 -4 10 -10z m1073
-30 c-7 -8 -22 24 -16 34 4 5 10 1 13 -10 4 -10 6 -21 3 -24z m-858 -10 c3 -5
-1 -10 -10 -10 -9 0 -13 5 -10 10 3 6 8 10 10 10 2 0 7 -4 10 -10z m133 -7
c-2 -10 -11 -18 -21 -19 -14 -2 -14 -1 -1 3 8 3 13 11 10 19 -3 8 -1 14 5 14
6 0 9 -8 7 -17z m-248 -8 c-7 -9 -15 -13 -17 -11 -7 7 7 26 19 26 6 0 6 -6 -2
-15z m100 -25 c0 -5 -2 -10 -4 -10 -3 0 -8 5 -11 10 -3 6 -1 10 4 10 6 0 11
-4 11 -10z m85 0 c-3 -5 -14 -10 -23 -10 -15 0 -15 2 -2 10 20 13 33 13 25 0z
m-50 -20 c3 -5 -1 -10 -9 -10 -9 0 -16 5 -16 10 0 6 4 10 9 10 6 0 13 -4 16
-10z m119 -17 c9 -24 -9 -39 -27 -22 -7 8 -12 20 -9 27 6 18 29 15 36 -5z m86
-9 c0 -8 -7 -14 -15 -14 -15 0 -21 21 -9 33 10 9 24 -2 24 -19z m520 -35 c0
-4 -7 -6 -15 -3 -8 4 -15 10 -15 15 0 4 7 6 15 3 8 -4 15 -10 15 -15z m-510 1
c0 -5 -2 -10 -4 -10 -3 0 -8 5 -11 10 -3 6 -1 10 4 10 6 0 11 -4 11 -10z
m-2790 -74 c0 -2 -7 -7 -16 -10 -8 -3 -12 -2 -9 4 6 10 25 14 25 6z m3400 -26
c0 -5 -4 -10 -10 -10 -5 0 -10 5 -10 10 0 6 5 10 10 10 6 0 10 -4 10 -10z
m-3540 -8 c0 -13 -12 -22 -22 -16 -10 6 -1 24 13 24 5 0 9 -4 9 -8z m2490 -22
c0 -5 -7 -10 -16 -10 -8 0 -12 5 -9 10 3 6 10 10 16 10 5 0 9 -4 9 -10z m170
-235 c0 -8 -4 -15 -8 -15 -5 0 -9 7 -9 15 0 8 4 15 9 15 4 0 8 -7 8 -15z
m-3100 -35 c0 -5 -4 -10 -10 -10 -5 0 -10 5 -10 10 0 6 5 10 10 10 6 0 10 -4
10 -10z m-203 -6 c-3 -3 -12 -4 -19 -1 -8 3 -5 6 6 6 11 1 17 -2 13 -5z m1725
-23 c2 -4 27 -5 57 -1 35 4 66 2 90 -6 20 -7 43 -13 52 -14 9 0 27 -8 40 -18
33 -26 67 -33 95 -20 20 10 27 8 38 -8 13 -17 18 -17 48 -6 19 6 49 12 67 12
19 0 30 4 26 10 -3 6 3 10 13 10 11 0 22 -6 25 -14 3 -7 18 -17 33 -20 15 -4
36 -18 47 -32 15 -20 25 -24 47 -19 22 5 28 2 33 -14 7 -27 23 -27 30 0 7 25
27 16 27 -12 0 -10 7 -19 15 -19 8 0 26 -12 41 -27 22 -22 29 -24 45 -15 27
17 32 15 27 -13 -4 -19 -2 -23 7 -15 9 8 14 5 18 -10 3 -11 17 -24 31 -30 14
-5 26 -13 26 -17 0 -5 20 -30 45 -57 35 -38 46 -45 51 -32 10 27 23 18 22 -16
-1 -30 2 -35 57 -75 6 -5 22 -14 37 -22 15 -8 29 -20 32 -27 6 -16 -3 -46 -13
-40 -13 8 -5 -70 8 -80 12 -10 9 -13 -16 -18 -17 -4 -40 -16 -53 -28 -18 -17
-26 -19 -40 -10 -10 6 -27 8 -39 5 -17 -4 -24 0 -28 16 -3 12 -10 21 -17 20
-31 -5 -86 37 -86 65 0 12 28 6 33 -6 4 -10 6 -10 6 -1 1 6 -9 19 -21 27 -25
18 -58 21 -58 6 0 -5 -14 -1 -30 8 -17 9 -28 22 -26 27 2 6 -5 12 -17 12 -26
2 -48 23 -24 23 15 0 13 5 -8 26 -25 24 -50 71 -47 85 1 4 -6 5 -16 2 -12 -3
-21 5 -28 26 -10 24 -19 31 -50 36 -22 3 -47 10 -56 16 -13 6 -18 6 -19 -3 0
-10 -2 -10 -6 0 -2 6 -11 12 -18 12 -7 0 -16 7 -19 16 -3 8 -10 12 -16 9 -6
-4 -8 -11 -5 -16 4 -5 2 -9 -4 -9 -5 0 -11 10 -13 23 -3 19 -9 22 -43 22 -36
0 -40 2 -38 25 1 14 0 18 -3 8 -7 -23 -46 -33 -72 -19 -26 14 -82 14 -82 1 0
-5 13 -10 29 -10 16 0 36 -7 45 -15 8 -8 25 -15 38 -16 l23 0 -23 -11 c-19
-10 -25 -8 -38 10 -12 18 -19 20 -34 12 -11 -6 -31 -8 -45 -4 -17 4 -25 2 -25
-7 0 -8 -7 -22 -15 -33 -13 -17 -14 -16 -24 15 -6 22 -10 27 -10 14 -1 -12 -6
-26 -13 -33 -15 -15 -54 -16 -63 -2 -9 15 -61 12 -75 -4 -9 -11 -35 -15 -103
-14 -51 0 -84 3 -74 5 9 3 17 13 17 24 0 19 -1 19 -16 5 -9 -9 -32 -16 -55
-16 -38 0 -52 12 -26 24 6 3 1 4 -13 2 -14 -2 -34 -1 -45 3 -17 7 -16 9 9 15
37 9 24 21 -20 17 -26 -2 -35 2 -40 16 -24 73 -24 73 -78 74 -28 1 -42 4 -32
6 15 4 16 7 5 14 -10 6 -4 9 19 9 24 0 32 4 32 18 0 14 2 15 10 2 8 -12 15
-11 52 7 35 18 39 22 19 22 -20 1 -21 3 -11 16 10 12 9 15 -4 15 -10 0 -14 4
-11 10 4 6 16 3 32 -7 24 -16 26 -16 42 4 10 13 33 23 61 27 25 3 54 7 65 9
11 2 14 2 8 0 -15 -5 -18 -23 -4 -23 20 0 41 13 35 21 -3 5 9 9 25 9 17 0 31
5 31 10 0 12 37 13 42 1z m255 -7 c-3 -3 -12 -4 -19 -1 -8 3 -5 6 6 6 11 1 17
-2 13 -5z m1493 -53 c0 -12 -20 -25 -27 -18 -7 7 6 27 18 27 5 0 9 -4 9 -9z
m50 -1 c0 -5 -4 -10 -10 -10 -5 0 -10 5 -10 10 0 6 5 10 10 10 6 0 10 -4 10
-10z m-3560 -50 c0 -5 -4 -10 -10 -10 -5 0 -10 5 -10 10 0 6 5 10 10 10 6 0
10 -4 10 -10z m3600 0 c0 -5 -4 -10 -10 -10 -5 0 -10 5 -10 10 0 6 5 10 10 10
6 0 10 -4 10 -10z m-3690 -38 c0 -13 -12 -22 -22 -16 -10 6 -1 24 13 24 5 0 9
-4 9 -8z m2690 -6 c0 -2 -7 -7 -16 -10 -8 -3 -12 -2 -9 4 6 10 25 14 25 6z
m1626 -42 c-4 -9 -9 -15 -11 -12 -3 3 -3 13 1 22 4 9 9 15 11 12 3 -3 3 -13
-1 -22z m-2950 -4 c38 0 44 -3 44 -21 0 -14 -5 -19 -14 -16 -26 10 -91 -20
-96 -45 -4 -17 -13 -24 -32 -25 -23 -1 -28 2 -28 22 0 13 -4 27 -10 30 -5 3
-10 13 -10 21 0 10 13 14 46 14 42 0 45 1 33 17 -12 15 -12 16 4 10 10 -4 39
-7 63 -7z m1444 -14 c0 -3 -4 -8 -10 -11 -5 -3 -10 -1 -10 4 0 6 5 11 10 11 6
0 10 -2 10 -4z m-1640 -68 c0 -5 -4 -8 -10 -8 -5 0 -10 10 -10 23 0 18 2 19
10 7 5 -8 10 -18 10 -22z m220 22 c0 -5 -7 -10 -15 -10 -8 0 -15 5 -15 10 0 6
7 10 15 10 8 0 15 -4 15 -10z m940 -20 c0 -5 -4 -10 -10 -10 -5 0 -10 5 -10
10 0 6 5 10 10 10 6 0 10 -4 10 -10z m-972 -22 c-3 -7 -13 -14 -24 -15 -10 -2
-13 0 -6 3 6 3 10 10 6 15 -3 5 2 9 11 9 9 0 15 -6 13 -12z m802 -30 c0 -4 -6
-5 -14 -2 -8 3 -12 12 -9 21 5 12 7 12 14 1 5 -7 9 -16 9 -20z m1662 23 c2 5
15 -2 31 -16 21 -20 25 -30 18 -44 -7 -13 -6 -18 5 -18 7 0 14 6 14 14 0 7 5
13 10 13 6 0 10 -9 10 -20 0 -11 8 -28 18 -38 46 -49 112 -138 106 -144 -2 -3
6 -16 18 -29 13 -14 22 -32 20 -42 -2 -10 3 -17 12 -17 9 0 16 -8 16 -20 0
-11 4 -20 9 -20 5 0 8 -6 8 -12 -1 -7 7 -31 17 -53 37 -82 46 -101 67 -150 26
-62 69 -227 61 -239 -6 -10 -41 33 -42 50 0 21 -41 104 -51 104 -5 0 -9 6 -8
13 2 6 -5 28 -13 47 -34 76 -42 95 -43 105 0 6 -5 15 -11 20 -7 6 -34 53 -62
106 -27 53 -57 107 -66 120 -10 13 -43 65 -75 114 -32 50 -72 105 -90 124 -37
42 -38 43 -7 31 16 -6 26 -5 28 1z m-2527 -61 c3 -5 0 -10 -7 -11 -7 0 -24 -2
-37 -5 -20 -4 -22 -2 -11 11 14 17 46 20 55 5z m256 -51 c115 -45 207 -64 389
-80 114 -9 152 -9 248 5 158 22 206 21 272 -10 70 -33 98 -59 106 -101 9 -46
-10 -86 -54 -112 l-37 -22 33 6 c60 12 148 -38 181 -103 18 -35 26 -80 22
-129 -1 -26 -51 -46 -84 -34 -12 5 -53 15 -92 21 -38 7 -81 21 -95 32 -15 12
-33 17 -47 13 -16 -4 -23 -1 -23 9 0 8 -8 16 -17 18 -13 3 -6 10 25 26 35 19
42 27 42 52 l0 29 -32 -18 c-18 -11 -72 -36 -119 -56 l-87 -36 -67 -95 c-118
-166 -116 -177 33 -302 29 -24 50 -48 47 -53 -10 -15 9 -10 35 11 14 11 20 20
13 20 -6 0 -15 -4 -18 -10 -3 -5 -12 -10 -18 -10 -7 0 -3 7 7 15 11 8 29 12
39 9 14 -4 17 -3 12 6 -5 9 -4 11 3 6 18 -11 244 105 417 214 21 13 28 12 77
-10 82 -38 134 -91 148 -151 7 -28 9 -53 6 -56 -3 -4 -6 -1 -6 5 0 7 -8 12
-17 12 -10 0 -30 7 -45 14 -16 8 -61 18 -100 21 -47 4 -83 14 -100 26 -15 10
-37 19 -48 19 -12 0 -18 5 -15 10 11 18 -29 11 -60 -11 -16 -11 -93 -52 -170
-91 -77 -39 -150 -75 -162 -81 -21 -12 -43 -65 -43 -106 0 -13 13 -36 29 -52
27 -26 36 -29 95 -29 61 0 66 -2 72 -24 3 -13 1 -33 -5 -44 -6 -12 -11 -45
-11 -74 0 -66 25 -110 79 -138 51 -25 102 -25 176 0 32 11 59 20 59 20 1 0 0
-34 -2 -75 -3 -72 -2 -76 26 -105 29 -28 35 -30 104 -29 40 0 96 4 124 8 48 7
50 6 46 -14 -3 -16 -16 -25 -50 -34 -75 -20 -172 -24 -221 -9 -53 16 -79 47
-89 108 l-8 45 -74 6 c-85 7 -143 28 -182 66 -34 33 -49 76 -53 154 -2 33 -5
61 -6 63 -2 1 -29 13 -60 25 -102 41 -125 83 -105 196 12 67 12 78 -2 88 -8 7
-35 31 -58 54 -49 48 -60 85 -51 169 5 47 15 68 71 146 75 104 78 93 -36 150
-66 32 -169 101 -300 200 -83 63 -124 83 -133 68 -11 -18 -49 -10 -80 15 -19
15 -25 24 -15 25 20 1 -23 36 -70 57 -61 27 -98 32 -150 18 -43 -11 -50 -11
-50 1 0 8 5 14 11 14 5 0 7 5 4 10 -3 6 0 10 7 10 19 0 68 23 68 33 0 19 150
-8 241 -44z m1579 -249 c0 -5 -2 -10 -4 -10 -3 0 -8 5 -11 10 -3 6 -1 10 4 10
6 0 11 -4 11 -10z m-1283 -67 c87 -61 151 -113 137 -113 -6 0 -58 34 -115 76
-119 87 -116 84 -101 84 6 0 41 -21 79 -47z m1203 38 c0 -12 -28 -22 -34 -12
-3 5 -3 11 1 15 9 9 33 7 33 -3z m-103 -27 c-3 -3 -12 -4 -19 -1 -8 3 -5 6 6
6 11 1 17 -2 13 -5z m-1351 -81 c32 -17 70 -44 84 -58 14 -15 48 -42 77 -60
28 -19 64 -45 80 -59 15 -14 41 -38 58 -53 28 -25 30 -30 32 -117 2 -104 22
-334 30 -356 3 -8 7 -22 8 -30 3 -14 19 -62 36 -105 33 -86 54 -121 105 -182
59 -70 87 -134 87 -195 0 -15 4 -28 8 -28 4 0 10 -10 13 -22 6 -23 58 -88 70
-88 4 0 16 -9 28 -20 12 -11 28 -20 35 -20 7 0 10 -6 8 -13 -3 -7 9 -18 26
-26 35 -15 69 -45 69 -61 0 -5 8 -14 19 -19 10 -6 25 -25 34 -43 9 -18 29 -46
46 -62 17 -16 28 -33 25 -38 -3 -4 2 -8 10 -8 9 0 16 -4 16 -9 0 -5 18 -28 40
-50 23 -23 32 -38 23 -35 -10 3 -7 -2 7 -10 14 -8 22 -15 18 -16 -4 0 -3 -12
3 -27 14 -36 18 -83 7 -89 -4 -3 -8 -16 -8 -30 0 -13 -4 -24 -8 -24 -4 0 -16
-13 -25 -30 -13 -22 -15 -34 -8 -47 8 -14 11 -15 11 -3 1 8 8 -5 16 -30 9 -25
27 -55 40 -68 13 -13 22 -27 19 -31 -2 -5 13 -21 34 -35 22 -15 41 -36 44 -47
3 -10 13 -19 22 -19 9 0 13 -4 10 -10 -3 -5 16 -31 42 -58 54 -55 109 -122
105 -128 -1 -3 9 -15 23 -28 14 -13 25 -28 25 -34 0 -6 11 -19 25 -30 15 -12
23 -26 19 -35 -3 -8 2 -17 11 -21 10 -3 15 -12 11 -21 -3 -9 0 -15 9 -15 23 0
18 -24 -9 -50 -23 -20 -24 -24 -9 -38 13 -13 13 -17 2 -21 -8 -2 -22 -15 -32
-28 -10 -12 -24 -23 -30 -23 -7 0 -36 -20 -65 -43 -57 -47 -82 -55 -74 -25 2
10 0 18 -5 16 -14 -4 -181 168 -253 262 -19 24 -45 56 -58 70 -13 14 -42 50
-65 80 -23 30 -60 78 -83 105 -84 101 -353 465 -373 504 -19 36 -25 40 -68 46
-98 12 -191 36 -278 72 -94 38 -135 63 -102 63 9 0 17 5 17 11 0 5 5 7 11 3
11 -7 7 147 -6 211 -3 17 -7 39 -8 50 -1 11 -6 25 -10 32 -4 6 -3 14 2 17 5 4
11 3 14 -1 2 -5 1 -1 -1 7 -3 8 -6 43 -6 77 0 34 -4 59 -8 57 -4 -2 -4 13 0
33 4 21 7 75 7 121 0 59 4 82 13 82 6 0 12 6 12 14 0 8 -6 17 -12 20 -9 4 -10
8 -2 11 8 4 7 17 -3 46 -10 30 -11 45 -3 54 8 10 7 14 -2 17 -10 4 -10 8 1 22
12 14 12 19 2 26 -9 5 -10 10 -2 14 6 4 11 13 11 19 0 7 -4 6 -10 -3 -8 -13
-10 -12 -11 5 -1 11 -1 32 0 48 2 17 -4 29 -14 33 -12 5 -13 9 -4 20 9 11 8
18 -5 32 -9 10 -16 22 -16 26 0 13 -44 66 -55 66 -23 0 -75 32 -75 46 0 8 -5
14 -11 14 -6 0 -8 -8 -4 -19 8 -27 -12 -36 -25 -11 -6 11 -15 18 -21 15 -5 -4
-9 3 -9 14 0 12 -7 21 -15 21 -19 0 -49 30 -69 68 -8 16 -22 32 -31 35 -22 9
-18 29 10 55 22 21 59 82 53 87 -2 1 -34 23 -73 48 -82 54 -105 72 -105 80 0
4 37 -16 83 -43 78 -48 107 -59 107 -42 0 4 -9 13 -20 20 -37 23 -16 71 43
101 15 8 27 17 27 20 0 3 33 6 73 6 63 0 81 -4 133 -32z m-471 -23 c-27 -12
-35 -12 -35 0 0 6 12 10 28 9 24 0 25 -1 7 -9z m2894 -300 c1 -26 -16 10 -23
50 l-6 35 14 -35 c8 -19 15 -42 15 -50z m-3142 -26 c0 -48 -2 -71 -8 -63 -13
20 -9 139 5 139 1 0 2 -34 3 -76z m196 -187 c19 -7 0 -19 -20 -13 -10 4 -34
20 -53 36 l-35 29 48 -24 c26 -13 53 -25 60 -28z m1877 -161 c0 -6 -9 0 -20
14 -26 33 -25 52 0 21 11 -13 20 -28 20 -35z m-50 25 c0 -25 -291 -118 -441
-142 -120 -18 -115 -5 6 20 154 32 242 57 337 96 91 37 98 39 98 26z m-300
-141 c-8 -5 -26 -9 -40 -9 -23 1 -23 2 5 9 43 11 52 11 35 0z m-1719 -17 c13
-15 12 -15 -8 -4 -24 12 -29 21 -14 21 5 0 15 -7 22 -17z m102 -73 c38 -24 63
-46 57 -48 -12 -4 -67 31 -115 73 -41 36 -23 28 58 -25z m1984 14 c-10 -11
-137 -83 -137 -78 0 7 123 84 134 84 5 0 7 -3 3 -6z m1156 -116 c-4 -60 -4
-71 -3 -185 2 -128 -49 -415 -81 -458 -5 -6 -12 -35 -18 -65 -5 -30 -27 -97
-50 -148 -23 -51 -41 -99 -41 -108 0 -21 27 -47 35 -34 3 5 15 10 27 10 18 0
20 -4 14 -31 -18 -91 -196 -395 -298 -510 -13 -14 -37 -41 -53 -60 -47 -53
-262 -244 -321 -284 -49 -34 -55 -36 -69 -21 -15 15 -15 16 0 16 8 0 18 7 21
15 4 8 26 36 50 62 42 44 61 80 29 53 -12 -10 -15 -10 -15 0 0 7 21 34 48 60
56 56 79 83 111 130 13 19 39 51 57 70 54 59 205 290 246 376 21 45 46 108 57
140 11 33 38 104 61 159 50 122 104 279 124 367 20 89 46 288 47 373 0 39 3
80 6 93 9 38 20 24 16 -20z m-1328 12 c-3 -5 -12 -10 -18 -10 -7 0 -6 4 3 10
19 12 23 12 15 0z m-62 -27 c-7 -2 -19 -2 -25 0 -7 3 -2 5 12 5 14 0 19 -2 13
-5z m-1720 -341 c58 -53 153 -112 179 -112 6 0 26 -12 45 -26 18 -14 55 -35
81 -46 26 -12 57 -28 69 -36 26 -16 246 -119 277 -128 12 -4 54 -22 95 -41 52
-23 71 -37 64 -44 -14 -14 -167 38 -298 102 -102 49 -321 175 -404 231 -64 44
-174 138 -161 138 6 0 29 -17 53 -38z m-1187 -257 c9 -13 18 -42 21 -65 3 -22
10 -40 14 -40 14 0 11 -35 -6 -66 -13 -26 -20 -21 -16 13 1 6 -11 38 -26 70
-29 62 -36 113 -16 113 7 0 20 -11 29 -25z m4438 -171 c2 -22 2 -33 -1 -26 -9
24 -19 11 -15 -19 4 -24 1 -30 -9 -27 -15 5 -21 98 -6 98 4 0 7 8 7 17 0 34
21 -4 24 -43z m66 52 c0 -3 -4 -8 -10 -11 -5 -3 -10 -1 -10 4 0 6 5 11 10 11
6 0 10 -2 10 -4z m-3125 -46 c3 -5 -1 -10 -10 -10 -9 0 -13 5 -10 10 3 6 8 10
10 10 2 0 7 -4 10 -10z m234 -16 c36 -8 80 -21 96 -28 17 -7 46 -19 65 -26 54
-21 110 -63 110 -83 0 -11 -14 -44 -32 -75 -17 -32 -52 -95 -78 -142 -76 -137
-90 -163 -119 -210 -15 -25 -83 -143 -151 -262 -68 -120 -135 -231 -149 -246
-15 -16 -34 -42 -43 -59 -16 -27 -16 -32 -1 -52 8 -13 31 -30 50 -38 20 -8 33
-16 31 -19 -8 -8 -92 26 -113 46 -27 25 -115 70 -115 59 0 -5 4 -9 8 -9 5 0
17 -7 28 -15 14 -12 9 -11 -21 2 -45 21 -240 150 -241 161 -2 18 -17 42 -26
42 -6 0 -4 -7 3 -16 12 -14 11 -16 -6 -12 -14 3 -19 11 -18 28 1 14 -1 19 -3
13 -8 -18 -27 -16 -20 2 3 8 1 15 -5 15 -16 0 -210 192 -326 322 -57 65 -101
118 -97 118 4 0 71 -66 148 -146 77 -80 165 -166 195 -191 54 -44 56 -44 65
-23 7 16 6 24 -3 30 -8 4 -10 13 -6 21 5 8 5 11 0 7 -10 -9 -45 9 -45 24 0 6
7 16 16 23 13 9 14 16 6 31 -7 14 -5 30 10 62 11 23 24 42 30 42 5 0 6 4 3 10
-9 14 7 38 41 62 16 11 22 18 12 15 -9 -3 -19 -3 -22 0 -7 7 21 48 34 49 6 1
13 2 17 3 4 0 -2 7 -13 15 -18 14 -18 15 6 24 14 5 31 21 39 35 7 14 23 30 35
35 17 9 18 11 4 11 -22 1 -24 21 -3 21 8 0 15 6 15 14 0 7 9 16 20 19 11 3 20
13 20 22 0 10 10 28 23 41 52 53 77 83 77 94 0 6 5 8 10 5 6 -3 10 1 10 9 0 9
6 16 14 16 8 0 16 7 20 15 3 8 15 15 26 15 11 0 20 4 20 9 0 18 80 50 142 57
35 4 72 10 83 15 30 12 52 11 124 -7z m2761 -3 c0 -6 -4 -13 -10 -16 -5 -3
-10 1 -10 9 0 9 5 16 10 16 6 0 10 -4 10 -9z m-4428 -46 c3 -14 2 -25 -2 -25
-9 0 -20 25 -20 46 0 23 17 7 22 -21z m4442 -27 c11 -19 2 -34 -23 -40 -10 -2
-15 7 -17 30 -1 25 2 32 14 30 8 -2 20 -11 26 -20z m33 -40 c-3 -8 -6 -5 -6 6
-1 11 2 17 5 13 3 -3 4 -12 1 -19z m-4380 -136 c38 -75 97 -181 131 -235 67
-106 77 -130 36 -82 -79 91 -254 406 -254 457 0 25 24 -14 87 -140z m4338 68
c3 -5 1 -10 -4 -10 -6 0 -11 5 -11 10 0 6 2 10 4 10 3 0 8 -4 11 -10z m125
-10 c0 -5 -5 -10 -11 -10 -5 0 -7 5 -4 10 3 6 8 10 11 10 2 0 4 -4 4 -10z
m-96 -44 c-3 -9 -11 -13 -16 -10 -6 4 -5 10 3 16 11 7 11 11 1 15 -6 2 -9 9
-6 15 10 15 25 -17 18 -36z m-48 -32 c-4 -10 -1 -14 6 -12 14 5 44 -20 35 -28
-4 -5 -41 14 -67 34 -4 3 20 21 29 22 2 0 0 -7 -3 -16z m-71 -5 c11 -17 -1
-21 -15 -4 -8 9 -8 15 -2 15 6 0 14 -5 17 -11z m35 -23 c0 -3 -4 -8 -10 -11
-5 -3 -10 -1 -10 4 0 6 5 11 10 11 6 0 10 -2 10 -4z m-60 -36 c0 -5 -4 -10
-10 -10 -5 0 -10 5 -10 10 0 6 5 10 10 10 6 0 10 -4 10 -10z m-30 -66 c0 -8
-4 -14 -10 -14 -5 0 -10 9 -10 21 0 11 5 17 10 14 6 -3 10 -13 10 -21z m69
-20 c2 -2 -10 -19 -27 -38 -17 -19 -33 -44 -37 -55 -3 -11 -15 -23 -25 -26
-11 -3 -17 -12 -14 -20 3 -7 -6 -31 -20 -52 -14 -21 -26 -42 -26 -48 0 -5 -13
-23 -30 -38 -16 -16 -30 -33 -30 -38 0 -4 -7 -6 -16 -2 -13 5 -15 2 -9 -15 4
-13 2 -22 -4 -22 -6 0 -11 6 -12 13 0 6 -6 -4 -12 -23 -9 -25 -18 -34 -30 -32
-11 2 -17 -2 -15 -10 2 -8 -12 -31 -29 -53 -32 -38 -33 -38 -34 -15 -2 43 2
60 19 79 8 8 11 23 8 35 -5 19 -4 20 8 4 11 -16 14 -11 25 37 7 30 16 55 21
55 5 0 10 10 12 23 2 16 9 21 25 19 22 -3 26 4 35 62 3 18 5 17 20 -6 16 -25
16 -27 -1 -50 -16 -20 -25 -58 -14 -58 2 0 15 12 28 28 18 20 23 34 19 55 -4
17 0 37 10 51 8 13 12 33 9 45 -3 12 0 27 6 34 6 8 8 16 5 20 -7 7 14 47 25
47 5 0 12 -7 15 -16 3 -8 2 -13 -3 -10 -4 3 -7 -11 -6 -32 3 -55 5 -59 15 -34
5 12 7 30 4 40 -5 16 -4 16 9 -1 15 -18 34 -7 22 13 -3 6 -1 10 6 10 8 0 9 3
0 13 -14 18 -3 29 23 21 12 -4 23 -8 25 -10z m71 -9 c7 -8 10 -16 6 -16 -3 -1
-10 -3 -16 -4 -5 -1 -13 -3 -16 -4 -4 0 -1 -8 6 -16 14 -17 15 -16 -27 -20
-37 -3 -38 -2 -22 28 26 48 47 58 69 32z m59 -51 c-15 -19 -25 -18 -33 3 -8
21 14 36 31 21 10 -8 10 -14 2 -24z m-4013 -55 c15 -19 62 -70 103 -114 42
-44 99 -105 127 -135 28 -30 80 -82 115 -115 35 -34 69 -70 76 -82 39 -68
-257 162 -349 271 -57 68 -129 182 -143 227 l-7 22 25 -20 c14 -11 38 -35 53
-54z m3836 -161 c-7 -7 -12 -8 -12 -2 0 14 12 26 19 19 2 -3 -1 -11 -7 -17z
m-32 8 c0 -3 -4 -8 -10 -11 -5 -3 -10 -1 -10 4 0 6 5 11 10 11 6 0 10 -2 10
-4z m-295 -86 c-3 -5 -1 -10 4 -10 6 0 11 -7 11 -16 0 -11 -5 -14 -17 -10 -9
4 -20 1 -24 -6 -4 -7 -11 -9 -14 -6 -8 7 26 57 38 58 5 0 5 -4 2 -10z m215
-66 c0 -8 -4 -14 -10 -14 -5 0 -10 9 -10 21 0 11 5 17 10 14 6 -3 10 -13 10
-21z m-235 -2 c-11 -4 -20 -16 -20 -26 0 -27 -18 -30 -33 -5 -17 27 -3 39 43
38 24 -1 26 -2 10 -7z m315 -32 c0 -5 -4 -10 -10 -10 -5 0 -10 5 -10 10 0 6 5
10 10 10 6 0 10 -4 10 -10z m-2065 -20 c3 -5 15 -10 26 -10 10 0 19 -5 19 -11
0 -8 -12 -9 -37 -4 -44 8 -47 10 -38 24 8 14 22 14 30 1z m1765 -10 c0 -5 -7
-10 -15 -10 -8 0 -15 5 -15 10 0 6 7 10 15 10 8 0 15 -4 15 -10z m-62 -12 c16
-21 24 -58 13 -58 -6 0 -11 9 -11 19 0 51 -40 27 -48 -28 -3 -26 -29 -77 -48
-97 -49 -54 -204 -174 -223 -174 -4 0 -28 -15 -52 -33 -24 -18 -48 -32 -54
-33 -20 -1 -65 -24 -65 -33 0 -6 -7 -8 -15 -5 -8 4 -15 1 -15 -6 0 -7 -8 -9
-20 -5 -15 5 -18 3 -14 -8 7 -20 -16 -33 -28 -16 -8 11 -9 10 -4 -3 3 -11 -2
-19 -15 -23 -25 -8 -37 1 -21 17 7 7 12 16 12 22 0 5 -6 1 -14 -10 -8 -10 -18
-16 -22 -11 -11 11 44 64 73 72 19 4 22 9 14 19 -15 18 11 40 37 32 11 -4 30
-2 43 4 22 10 21 10 -8 6 -18 -3 -33 -2 -33 2 1 4 45 36 99 71 54 35 114 77
132 94 19 16 50 41 69 56 19 14 44 34 54 43 10 10 24 15 29 11 6 -3 7 -1 4 4
-10 16 29 46 50 39 12 -4 24 2 37 19 21 28 29 30 44 13z m-1793 -30 c25 29 75
30 93 2 7 -11 17 -20 23 -20 5 0 19 -9 31 -20 19 -17 19 -20 5 -20 -11 0 -17
-8 -17 -25 0 -14 4 -25 9 -25 5 0 18 11 29 25 11 14 25 25 31 25 6 0 11 7 11
16 0 10 7 14 22 12 16 -2 24 -12 28 -32 3 -16 11 -31 19 -34 10 -3 11 2 6 19
l-7 24 19 -25 c11 -14 22 -33 26 -42 3 -10 13 -18 22 -18 8 0 15 -6 15 -12 -1
-19 -47 -68 -65 -68 -8 0 -15 -6 -15 -12 0 -7 -7 -4 -16 7 -14 19 -15 19 -20
-3 -7 -26 -24 -29 -25 -4 -1 16 -2 16 -6 0 -3 -13 -15 -18 -41 -19 -20 0 -53
-6 -72 -13 -48 -17 -90 -3 -90 30 0 18 -7 25 -27 30 -16 3 -34 7 -41 10 -7 2
-24 -1 -39 -7 -17 -6 -30 -6 -36 0 -7 7 -5 12 6 17 25 9 20 29 -10 41 l-28 12
28 -5 c15 -2 39 -6 53 -9 32 -7 23 12 -12 25 -13 5 -24 15 -23 22 0 10 2 10 5
1 7 -16 34 -5 34 13 0 8 -8 14 -17 15 -13 0 -14 2 -4 6 25 10 51 37 51 54 0
27 15 32 20 7 l6 -23 19 23z m1785 -52 c0 -3 -4 -8 -10 -11 -5 -3 -10 -1 -10
4 0 6 5 11 10 11 6 0 10 -2 10 -4z m-370 -26 c0 -5 -4 -10 -9 -10 -6 0 -13 5
-16 10 -3 6 1 10 9 10 9 0 16 -4 16 -10z m435 -30 c3 -5 1 -10 -4 -10 -6 0
-11 5 -11 10 0 6 2 10 4 10 3 0 8 -4 11 -10z m-705 -30 c0 -5 -2 -10 -4 -10
-2 0 -12 -3 -22 -7 -16 -6 -17 -5 -4 10 17 19 30 22 30 7z m-2670 -34 c0 -3
-4 -8 -10 -11 -5 -3 -10 -1 -10 4 0 6 5 11 10 11 6 0 10 -2 10 -4z m2880 -16
c-18 -12 -43 -13 -36 -2 2 4 15 8 28 9 18 2 19 0 8 -7z m-1383 -36 c-3 -3 -12
-4 -19 -1 -8 3 -5 6 6 6 11 1 17 -2 13 -5z m-792 -14 c3 -6 -1 -7 -9 -4 -18 7
-21 14 -7 14 6 0 13 -4 16 -10z m1611 -61 c-33 -11 -61 -17 -63 -15 -6 5 86
34 107 34 8 0 -12 -9 -44 -19z m-1250 -35 c49 -9 121 -22 159 -30 l70 -14 -63
5 c-61 5 -273 43 -281 51 -8 8 27 4 115 -12z m515 -57 c75 1 183 4 240 8 57 4
102 5 99 2 -3 -3 -73 -13 -156 -21 -123 -13 -176 -14 -280 -5 -71 6 -142 14
-159 19 -21 7 -7 8 45 3 41 -3 136 -6 211 -6z m1123 -2 c-7 -16 -24 -21 -24
-6 0 8 7 13 27 20 1 1 0 -6 -3 -14z m-80 -40 c-4 -10 0 -15 15 -15 12 0 21 -5
21 -11 0 -5 -4 -7 -10 -4 -5 3 -10 1 -10 -4 0 -6 -5 -11 -11 -11 -5 0 -8 4 -5
9 4 5 1 11 -6 13 -11 4 -5 38 6 38 3 0 3 -7 0 -15z m-32 -50 c-2 -14 -8 -25
-13 -25 -5 0 -9 -7 -9 -15 0 -8 5 -15 10 -15 6 0 10 7 10 16 0 9 6 14 13 11 6
-2 12 -20 12 -41 1 -39 -11 -58 -21 -33 -5 13 -9 13 -32 1 -15 -8 -33 -14 -39
-14 -7 0 -13 -5 -13 -11 0 -6 -9 -9 -20 -6 -12 3 -20 0 -20 -7 0 -18 -38 -17
-43 2 -3 12 -5 9 -6 -6 -1 -15 -9 -26 -21 -29 -11 -3 -20 -9 -20 -13 0 -7 -61
-27 -100 -34 -8 -1 -25 -8 -38 -15 -13 -7 -30 -10 -38 -7 -8 3 -14 2 -14 -3 0
-4 -18 -13 -40 -20 -22 -6 -40 -16 -40 -20 0 -14 -42 -21 -61 -10 -12 6 -20 5
-24 -1 -4 -7 -14 -3 -25 10 -9 11 -21 20 -25 20 -9 0 -34 31 -35 43 0 4 9 7
21 7 12 0 23 8 26 19 5 19 46 31 126 36 21 1 40 5 44 9 3 3 15 6 25 6 11 0 16
5 13 10 -3 6 -1 10 4 10 6 0 11 -4 11 -9 0 -11 62 10 85 29 14 11 20 12 37 1
18 -11 20 -11 15 2 -8 21 3 29 21 14 13 -10 15 -9 9 6 -6 17 5 22 45 19 9 -1
20 8 23 19 6 19 7 20 20 2 7 -10 17 -15 21 -11 4 4 1 16 -7 25 -13 17 -12 17
6 2 20 -16 55 -22 55 -9 0 9 43 59 51 59 3 1 4 -10 1 -24z m-63 -22 c2 -2 -3
-3 -11 -3 -9 0 -19 7 -22 16 -6 15 -4 15 11 3 10 -7 20 -15 22 -16z m-1584
-93 c3 -5 3 -10 -2 -10 -4 0 -19 -3 -33 -6 -24 -6 -25 -6 -5 9 24 19 32 21 40
7z m1700 0 c3 -5 1 -10 -4 -10 -6 0 -11 5 -11 10 0 6 2 10 4 10 3 0 8 -4 11
-10z m-27 -35 c-3 -3 -9 2 -12 12 -6 14 -5 15 5 6 7 -7 10 -15 7 -18z m-24
-14 c3 -5 -5 -11 -19 -13 -20 -4 -23 -3 -14 8 13 16 25 18 33 5z m-1516 -18
c5 -18 -10 -16 -34 2 -18 15 -18 15 5 13 14 -2 26 -9 29 -15z m1564 -15 c-11
-11 -32 -3 -32 12 0 4 9 6 21 3 13 -4 17 -9 11 -15z m-1494 -18 c6 0 18 7 26
16 9 8 16 12 16 7 0 -13 -14 -30 -30 -36 -9 -3 -6 -6 10 -6 18 -1 21 -4 13
-12 -16 -16 -99 7 -107 28 -4 11 -2 13 9 9 10 -3 15 0 15 11 0 15 2 15 18 0
10 -10 24 -17 30 -17z m812 20 c0 -5 -4 -10 -10 -10 -5 0 -10 5 -10 10 0 6 5
10 10 10 6 0 10 -4 10 -10z m-1225 -28 c-3 -3 -11 0 -18 7 -9 10 -8 11 6 5 10
-3 15 -9 12 -12z m1168 11 c-7 -2 -21 -2 -30 0 -10 3 -4 5 12 5 17 0 24 -2 18
-5z m747 -13 c0 -5 -2 -10 -4 -10 -3 0 -8 5 -11 10 -3 6 -1 10 4 10 6 0 11 -4
11 -10z m-2611 -26 c9 -9 -53 7 -63 17 -5 5 5 4 24 -1 18 -5 35 -12 39 -16z
m41 16 c0 -5 -4 -10 -10 -10 -5 0 -10 5 -10 10 0 6 5 10 10 10 6 0 10 -4 10
-10z m850 0 c0 -5 -2 -10 -4 -10 -3 0 -8 5 -11 10 -3 6 -1 10 4 10 6 0 11 -4
11 -10z m1520 -21 c0 -5 -4 -9 -10 -9 -5 0 -10 7 -10 16 0 8 5 12 10 9 6 -3
10 -10 10 -16z m410 1 c0 -5 -5 -10 -11 -10 -5 0 -7 5 -4 10 3 6 8 10 11 10 2
0 4 -4 4 -10z m-1970 -20 c0 -5 -4 -10 -10 -10 -5 0 -10 5 -10 10 0 6 5 10 10
10 6 0 10 -4 10 -10z m-590 -20 c-8 -5 -22 -9 -30 -9 -10 0 -8 3 5 9 27 12 43
12 25 0z m550 0 c0 -5 -5 -10 -11 -10 -5 0 -7 5 -4 10 3 6 8 10 11 10 2 0 4
-4 4 -10z m-25 -20 c3 -5 -1 -10 -9 -10 -9 0 -16 5 -16 10 0 6 4 10 9 10 6 0
13 -4 16 -10z m12 -26 c-3 -3 -12 -4 -19 -1 -8 3 -5 6 6 6 11 1 17 -2 13 -5z
m-47 -14 c0 -5 -2 -10 -4 -10 -3 0 -8 5 -11 10 -3 6 -1 10 4 10 6 0 11 -4 11
-10z"/>
<path d="M2320 4380 c0 -13 20 -13 40 0 12 8 9 10 -12 10 -16 0 -28 -4 -28
-10z"/>
<path d="M2237 4356 c-4 -10 1 -12 14 -9 23 6 24 9 5 16 -8 3 -17 0 -19 -7z"/>
<path d="M2650 4186 c0 -9 7 -16 16 -16 9 0 14 5 12 12 -6 18 -28 21 -28 4z"/>
<path d="M2030 4180 c0 -5 5 -10 10 -10 6 0 10 5 10 10 0 6 -4 10 -10 10 -5 0
-10 -4 -10 -10z"/>
<path d="M2515 4170 c27 -12 35 -12 35 0 0 6 -12 10 -27 9 -25 0 -26 -1 -8 -9z"/>
<path d="M2138 4133 c7 -3 16 -2 19 1 4 3 -2 6 -13 5 -11 0 -14 -3 -6 -6z"/>
<path d="M3498 3873 c7 -3 16 -2 19 1 4 3 -2 6 -13 5 -11 0 -14 -3 -6 -6z"/>
<path d="M1688 4163 c7 -3 16 -2 19 1 4 3 -2 6 -13 5 -11 0 -14 -3 -6 -6z"/>
<path d="M2235 3823 c51 -50 180 -142 267 -191 122 -69 112 -69 286 -10 88 30
123 48 51 28 -18 -6 -43 -10 -54 -9 -19 0 -19 1 -1 8 16 6 17 8 4 13 -9 4 -20
2 -25 -3 -6 -6 -20 -4 -39 6 -16 8 -36 15 -45 15 -8 0 -20 5 -27 12 -9 9 -12
9 -12 -1 0 -11 -3 -11 -16 0 -9 7 -25 15 -37 16 -12 2 -30 9 -42 17 -11 7 -45
21 -75 30 -30 10 -64 21 -75 26 -11 5 -45 16 -75 23 -30 8 -64 18 -75 22 -13
5 -17 5 -10 -2z"/>
<path d="M4437 1223 c-4 -3 -7 -13 -7 -22 1 -13 3 -13 11 2 11 19 8 33 -4 20z"/>
<path d="M4280 1020 c0 -5 7 -10 16 -10 8 0 12 5 9 10 -3 6 -10 10 -16 10 -5
0 -9 -4 -9 -10z"/>
<path d="M4140 951 c0 -5 5 -13 10 -16 6 -3 10 -2 10 4 0 5 -4 13 -10 16 -5 3
-10 2 -10 -4z"/>
<path d="M4044 806 c5 -19 3 -26 -9 -26 -8 0 -15 -4 -15 -10 0 -15 12 -12 36
8 21 17 21 17 1 36 -20 19 -20 19 -13 -8z"/>
<path d="M3950 760 c0 -5 5 -10 10 -10 6 0 10 5 10 10 0 6 -4 10 -10 10 -5 0
-10 -4 -10 -10z"/>
<path d="M3920 740 c0 -5 5 -10 11 -10 5 0 7 5 4 10 -3 6 -8 10 -11 10 -2 0
-4 -4 -4 -10z"/>
<path d="M4001 732 c-1 -7 -5 -10 -11 -7 -6 3 -7 -1 -4 -10 4 -11 10 -13 16
-7 6 6 8 16 5 24 -4 10 -6 10 -6 0z"/>
<path d="M3940 716 c0 -2 7 -9 15 -16 12 -10 15 -10 15 4 0 9 -7 16 -15 16 -8
0 -15 -2 -15 -4z"/>
<path d="M3830 641 c0 -6 5 -13 10 -16 6 -3 10 1 10 9 0 9 -4 16 -10 16 -5 0
-10 -4 -10 -9z"/>
<path d="M3590 510 c0 -5 5 -10 10 -10 6 0 10 5 10 10 0 6 -4 10 -10 10 -5 0
-10 -4 -10 -10z"/>
<path d="M3590 460 c0 -5 5 -10 11 -10 5 0 7 5 4 10 -3 6 -8 10 -11 10 -2 0
-4 -4 -4 -10z"/>
<path d="M2440 793 c0 -5 5 -15 10 -23 8 -12 10 -11 10 8 0 12 -4 22 -10 22
-5 0 -10 -3 -10 -7z"/>
<path d="M2400 709 c0 -5 5 -7 10 -4 6 3 10 8 10 11 0 2 -4 4 -10 4 -5 0 -10
-5 -10 -11z"/>
<path d="M2631 674 c0 -11 3 -14 6 -6 3 7 2 16 -1 19 -3 4 -6 -2 -5 -13z"/>
<path d="M2400 621 c0 -12 6 -21 16 -21 9 0 14 7 12 17 -5 25 -28 28 -28 4z"/>
<path d="M3000 209 c0 -5 5 -7 10 -4 6 3 10 8 10 11 0 2 -4 4 -10 4 -5 0 -10
-5 -10 -11z"/>
<path d="M1070 5010 c-8 -5 -11 -12 -7 -16 4 -4 13 -2 19 4 15 15 7 24 -12 12z"/>
<path d="M3320 5000 c0 -5 5 -10 11 -10 5 0 7 5 4 10 -3 6 -8 10 -11 10 -2 0
-4 -4 -4 -10z"/>
<path d="M1204 4989 c-3 -6 -1 -16 5 -22 9 -9 14 -8 21 3 9 15 4 30 -10 30 -5
0 -12 -5 -16 -11z"/>
<path d="M1030 4981 c0 -6 4 -13 10 -16 6 -3 7 1 4 9 -7 18 -14 21 -14 7z"/>
<path d="M3290 4982 c0 -5 12 -14 28 -21 l27 -13 -22 21 c-24 23 -33 26 -33
13z"/>
<path d="M918 4953 c7 -3 16 -2 19 1 4 3 -2 6 -13 5 -11 0 -14 -3 -6 -6z"/>
<path d="M670 4930 c0 -5 10 -10 23 -10 18 0 19 2 7 10 -19 13 -30 13 -30 0z"/>
<path d="M3740 4850 c-13 -8 -12 -10 3 -10 9 0 17 5 17 10 0 12 -1 12 -20 0z"/>
<path d="M475 4810 c3 -5 8 -10 11 -10 2 0 4 5 4 10 0 6 -5 10 -11 10 -5 0 -7
-4 -4 -10z"/>
<path d="M3670 4806 c0 -2 11 -6 25 -8 14 -3 25 -1 25 3 0 5 -11 9 -25 9 -14
0 -25 -2 -25 -4z"/>
<path d="M3665 4780 c-7 -11 22 -26 32 -16 4 3 1 6 -6 6 -7 0 -9 5 -6 10 3 6
2 10 -4 10 -5 0 -13 -5 -16 -10z"/>
<path d="M400 4756 c0 -2 7 -9 15 -16 9 -7 15 -8 15 -2 0 5 -7 12 -15 16 -8 3
-15 4 -15 2z"/>
<path d="M3728 4743 c7 -3 16 -2 19 1 4 3 -2 6 -13 5 -11 0 -14 -3 -6 -6z"/>
<path d="M3790 4726 c0 -10 -9 -16 -25 -16 -14 0 -25 -4 -25 -10 0 -5 8 -6 17
-3 12 5 15 2 10 -10 -9 -23 5 -21 26 3 19 23 21 36 7 45 -5 3 -10 -1 -10 -9z"/>
<path d="M920 4686 c0 -9 5 -16 10 -16 6 0 10 4 10 9 0 6 -4 13 -10 16 -5 3
-10 -1 -10 -9z"/>
<path d="M3810 4680 c0 -5 7 -10 15 -10 8 0 15 5 15 10 0 6 -7 10 -15 10 -8 0
-15 -4 -15 -10z"/>
<path d="M3632 4651 c7 -11 16 -17 20 -14 10 5 -10 33 -23 33 -5 0 -4 -9 3
-19z"/>
<path d="M3832 4651 c2 -7 7 -12 11 -12 12 1 9 15 -3 20 -7 2 -11 -2 -8 -8z"/>
<path d="M742 4605 c-12 -9 -22 -23 -22 -31 0 -14 2 -14 15 -1 8 9 20 17 26
19 7 2 10 9 8 16 -3 9 -10 8 -27 -3z"/>
<path d="M4675 4610 c3 -5 8 -10 11 -10 2 0 4 5 4 10 0 6 -5 10 -11 10 -5 0
-7 -4 -4 -10z"/>
<path d="M3755 4571 c-6 -11 13 -26 22 -17 4 3 1 6 -6 6 -7 0 -9 5 -6 10 3 6
4 10 1 10 -3 0 -7 -4 -11 -9z"/>
<path d="M4710 4565 c0 -5 5 -17 10 -25 5 -8 10 -10 10 -5 0 6 -5 17 -10 25
-5 8 -10 11 -10 5z"/>
<path d="M255 4500 c-3 -5 -1 -10 4 -10 6 0 11 5 11 10 0 6 -2 10 -4 10 -3 0
-8 -4 -11 -10z"/>
<path d="M4670 4457 c14 -8 27 -12 30 -10 7 6 -23 23 -40 23 -8 0 -4 -6 10
-13z"/>
<path d="M4070 4437 c0 -8 7 -17 15 -21 8 -3 15 -3 15 0 0 3 -7 12 -15 20 -13
13 -15 13 -15 1z"/>
<path d="M4630 4431 c0 -5 6 -11 13 -14 7 -3 2 -9 -12 -14 -15 -6 -20 -12 -13
-17 6 -4 21 3 33 15 17 17 19 23 8 30 -18 11 -29 11 -29 0z"/>
<path d="M4120 4390 c0 -5 5 -10 10 -10 6 0 10 5 10 10 0 6 -4 10 -10 10 -5 0
-10 -4 -10 -10z"/>
<path d="M4596 4325 c-3 -8 -1 -15 4 -15 6 0 10 7 10 15 0 8 -2 15 -4 15 -2 0
-6 -7 -10 -15z"/>
<path d="M590 4205 c-11 -13 -10 -14 4 -9 9 3 16 10 16 15 0 13 -6 11 -20 -6z"/>
<path d="M4356 4197 c3 -10 9 -15 12 -12 3 3 0 11 -7 18 -10 9 -11 8 -5 -6z"/>
<path d="M4330 4158 c0 -8 8 -22 19 -32 16 -15 19 -15 31 -1 17 20 5 32 -15
15 -8 -7 -16 -10 -16 -6 -1 3 -2 10 -3 15 -2 17 -16 25 -16 9z"/>
<path d="M387 4093 c-12 -11 -8 -23 7 -23 8 0 16 -12 18 -27 l4 -28 8 27 c6
20 4 32 -7 43 -17 17 -21 18 -30 8z"/>
<path d="M360 3985 c-7 -9 -8 -15 -2 -15 5 0 12 7 16 15 3 8 4 15 2 15 -2 0
-9 -7 -16 -15z"/>
<path d="M151 3394 c0 -11 3 -14 6 -6 3 7 2 16 -1 19 -3 4 -6 -2 -5 -13z"/>
<path d="M2 2985 c0 -16 2 -22 5 -12 2 9 2 23 0 30 -3 6 -5 -1 -5 -18z"/>
<path d="M4835 1820 c-3 -6 1 -7 9 -4 18 7 21 14 7 14 -6 0 -13 -4 -16 -10z"/>
<path d="M4750 1544 c0 -9 5 -14 12 -12 18 6 21 28 4 28 -9 0 -16 -7 -16 -16z"/>
<path d="M144 1509 c0 -12 11 -28 24 -37 20 -13 22 -13 22 2 0 9 -7 19 -15 22
-8 4 -15 12 -15 20 0 8 -4 14 -9 14 -4 0 -8 -10 -7 -21z"/>
<path d="M4716 1515 c-4 -11 1 -15 18 -15 14 0 27 -6 29 -12 3 -8 6 -6 6 5 1
11 -6 17 -20 17 -11 0 -17 5 -14 10 3 6 2 10 -3 10 -6 0 -12 -7 -16 -15z"/>
<path d="M196 1431 c-4 -7 -5 -15 -2 -18 9 -9 19 4 14 18 -4 11 -6 11 -12 0z"/>
<path d="M4734 1365 c26 -19 42 -19 26 0 -7 8 -20 15 -29 15 -13 -1 -13 -3 3
-15z"/>
<path d="M210 1361 c0 -11 26 -22 34 -14 3 3 3 10 0 14 -7 12 -34 11 -34 0z"/>
<path d="M4907 1323 c-4 -3 -7 -13 -7 -20 0 -19 -25 -43 -44 -43 -8 0 -20 -9
-26 -19 -13 -25 -13 -44 0 -36 6 3 10 2 10 -4 0 -6 -11 -13 -24 -17 -21 -5
-23 -9 -14 -24 14 -22 4 -51 -16 -44 -9 3 -15 9 -14 12 5 42 -20 54 -55 28
-22 -17 -13 -44 18 -52 34 -8 49 -57 25 -79 -16 -14 -38 -69 -28 -71 2 0 -13
-14 -32 -31 -20 -17 -36 -41 -37 -53 -2 -27 -14 -40 -20 -22 -3 6 -11 12 -19
12 -10 0 -12 -8 -7 -32 5 -28 4 -31 -8 -22 -8 6 -25 10 -39 10 -26 -1 -26 0
-15 -63 2 -17 -2 -23 -15 -23 -10 0 -22 -9 -25 -21 -4 -13 -12 -18 -21 -15 -9
3 -14 0 -13 -7 4 -20 -12 -67 -23 -67 -5 0 -6 5 -3 10 3 6 2 10 -3 10 -6 0
-12 -7 -16 -15 -3 -8 -11 -12 -19 -9 -9 3 -13 -3 -13 -18 1 -17 -5 -23 -20
-23 -12 -1 -32 -12 -45 -26 -13 -14 -30 -24 -36 -22 -7 3 -17 -7 -23 -21 -6
-17 -24 -32 -50 -42 -22 -9 -40 -20 -40 -24 0 -11 -39 -25 -78 -29 -7 0 -11
-5 -8 -10 3 -5 -7 -11 -23 -14 -22 -5 -28 -11 -27 -29 1 -14 -10 -32 -27 -47
-20 -17 -25 -26 -16 -31 18 -12 2 -43 -18 -36 -9 4 -19 2 -22 -3 -4 -5 -20
-12 -36 -15 -17 -2 -32 -5 -35 -6 -3 -1 -13 -2 -22 -1 -10 1 -18 -3 -18 -9 0
-7 -8 -9 -20 -5 -16 5 -20 2 -20 -14 0 -25 8 -26 31 -5 19 17 24 12 43 -49 3
-9 13 -17 23 -16 11 0 13 3 6 6 -26 10 -13 33 17 33 17 0 39 6 50 12 16 10 24
10 40 0 17 -10 20 -10 20 3 0 8 7 15 15 15 7 0 19 8 24 17 9 16 10 16 11 -4 0
-12 5 -25 10 -28 19 -12 10 -27 -13 -21 -18 4 -27 -1 -40 -23 -10 -16 -28 -31
-44 -34 -16 -3 -32 -15 -38 -29 -5 -13 -25 -30 -43 -40 -53 -26 -50 -28 30
-28 60 0 79 4 98 20 12 11 27 17 31 14 5 -3 9 0 9 6 0 6 9 30 20 52 11 23 20
47 20 54 0 20 31 39 64 39 18 0 30 5 29 12 -2 7 8 10 27 8 21 -3 30 0 30 10 0
8 7 15 16 15 8 0 12 4 9 10 -3 5 -1 19 5 31 9 16 19 20 41 17 20 -3 29 0 29 9
0 7 9 13 20 13 11 0 20 -4 20 -10 0 -5 10 -9 23 -9 16 1 17 3 5 6 -9 2 -15 10
-12 18 3 8 12 11 20 8 8 -3 14 1 14 10 0 9 17 21 42 29 42 13 64 38 34 38 -28
0 -17 25 19 44 19 10 44 28 56 39 l22 21 -7 -29 c-6 -25 -5 -27 8 -16 9 7 18
28 22 47 4 20 12 34 21 34 8 0 13 8 11 17 -2 10 3 18 11 18 18 0 26 21 12 30
-16 9 -13 25 2 19 14 -5 64 33 54 42 -6 7 32 54 44 54 5 0 6 -7 3 -15 -4 -8
-1 -15 4 -15 13 0 26 36 18 49 -3 5 2 12 11 15 14 6 14 8 -3 21 -18 13 -18 14
-1 15 10 0 29 12 42 26 21 22 25 37 25 84 0 51 -3 58 -22 63 -16 5 -30 -1 -48
-18 -28 -26 -40 -31 -40 -15 0 5 11 15 25 23 25 13 25 13 6 34 -17 18 -18 25
-8 47 7 14 17 25 22 25 26 -3 45 2 45 12 0 5 -4 8 -9 5 -17 -11 -40 5 -34 22
10 25 36 52 50 52 10 0 13 24 13 90 0 83 -5 101 -23 83z m-177 -427 c0 -3 -4
-8 -10 -11 -5 -3 -10 -1 -10 4 0 6 5 11 10 11 6 0 10 -2 10 -4z m-84 -91 c1
-8 -2 -17 -7 -21 -5 -3 -9 7 -9 22 0 27 12 26 16 -1z m-31 -145 c3 -5 2 -10
-4 -10 -5 0 -13 5 -16 10 -3 6 -2 10 4 10 5 0 13 -4 16 -10z m-297 -178 c2 -7
-3 -12 -12 -12 -9 0 -16 7 -16 16 0 17 22 14 28 -4z m-108 -232 c0 -5 -7 -7
-15 -4 -8 4 -15 8 -15 10 0 2 7 4 15 4 8 0 15 -4 15 -10z"/>
<path d="M256 1311 c-3 -5 1 -11 9 -14 9 -4 12 -1 8 9 -6 16 -10 17 -17 5z"/>
<path d="M285 1240 c-3 -5 3 -14 14 -19 23 -13 31 -14 31 -3 0 13 -39 32 -45
22z"/>
<path d="M346 1185 c4 -8 11 -15 16 -15 6 0 5 6 -2 15 -7 8 -14 15 -16 15 -2
0 -1 -7 2 -15z"/>
<path d="M4700 1092 c0 -5 7 -9 15 -9 8 0 12 4 9 9 -3 4 -9 8 -15 8 -5 0 -9
-4 -9 -8z"/>
<path d="M420 1080 c0 -5 5 -10 10 -10 6 0 10 5 10 10 0 6 -4 10 -10 10 -5 0
-10 -4 -10 -10z"/>
<path d="M4905 1031 c3 -6 -3 -14 -12 -20 -11 -6 -13 -11 -5 -11 13 0 42 23
42 34 0 3 -7 6 -16 6 -8 0 -13 -4 -9 -9z"/>
<path d="M610 869 c0 -5 5 -7 10 -4 6 3 10 8 10 11 0 2 -4 4 -10 4 -5 0 -10
-5 -10 -11z"/>
<path d="M636 864 c-3 -9 -1 -12 4 -9 6 3 10 1 10 -4 0 -6 5 -11 10 -11 15 0
12 27 -4 33 -8 3 -17 -1 -20 -9z"/>
<path d="M307 733 c-4 -3 -7 -11 -7 -17 0 -6 5 -5 12 2 6 6 9 14 7 17 -3 3 -9
2 -12 -2z"/>
<path d="M340 679 c0 -10 7 -19 15 -19 9 0 15 -6 14 -12 -3 -27 2 -38 16 -38
8 0 15 -7 15 -15 0 -8 5 -15 10 -15 15 0 12 19 -5 37 -8 8 -14 18 -12 21 2 4
-10 19 -25 34 -25 24 -28 25 -28 7z"/>
<path d="M4800 669 c0 -5 5 -7 10 -4 6 3 10 8 10 11 0 2 -4 4 -10 4 -5 0 -10
-5 -10 -11z"/>
<path d="M4844 635 c-7 -18 4 -37 17 -29 6 4 6 10 0 18 -6 7 -8 16 -4 19 3 4
3 7 -1 7 -3 0 -9 -7 -12 -15z"/>
<path d="M4884 628 c3 -10 9 -25 13 -35 4 -12 3 -14 -6 -8 -10 6 -11 2 -6 -16
3 -13 9 -33 11 -44 3 -17 2 -16 -8 3 -7 13 -17 21 -26 17 -7 -3 -27 -5 -44 -5
-21 0 -31 -6 -35 -20 -4 -15 -14 -20 -42 -21 -21 -1 -28 -3 -16 -6 30 -7 43
-23 18 -23 -11 0 -23 -7 -27 -15 -3 -8 -17 -15 -32 -15 -19 0 -25 -4 -20 -15
21 -52 21 -51 3 -36 -10 8 -29 15 -43 17 -20 2 -28 -3 -36 -27 -7 -21 -18 -30
-44 -35 -29 -5 -32 -9 -24 -24 14 -26 12 -33 -6 -26 -26 10 -39 -6 -15 -19 20
-10 27 -7 59 22 20 18 44 33 54 33 10 0 18 5 18 11 0 5 5 7 10 4 6 -3 10 -2
10 4 0 5 -4 13 -10 16 -5 3 -9 14 -9 23 1 15 2 15 6 -1 3 -12 13 -17 36 -15
18 1 35 7 39 12 5 7 12 5 20 -5 16 -21 78 -31 71 -12 -3 7 -16 13 -29 13 -13
0 -24 4 -24 10 0 5 6 9 13 7 6 -1 11 6 9 16 -2 9 1 17 6 17 16 0 53 -42 48
-55 -3 -8 0 -16 7 -19 9 -3 8 -8 -3 -16 -12 -9 -8 -11 18 -6 18 3 32 1 32 -4
0 -6 -5 -10 -11 -10 -6 0 -8 -9 -4 -20 3 -11 2 -20 -3 -20 -6 0 -12 6 -14 12
-8 23 -42 -44 -43 -83 -1 -39 8 -46 35 -29 13 8 12 11 -5 24 -19 13 -18 14 17
11 27 -2 38 1 43 13 6 16 8 15 20 -2 12 -16 14 -14 13 23 0 39 -2 41 -27 36
l-26 -5 28 11 c23 9 27 16 27 49 0 30 -5 40 -20 45 -11 3 -20 11 -20 16 0 5 9
9 20 9 18 0 20 7 20 76 0 64 -2 75 -15 70 -8 -3 -15 -1 -15 4 0 6 7 10 15 10
10 0 15 9 14 28 0 15 -3 21 -6 13 -4 -11 -10 -8 -25 10 -13 16 -18 18 -14 7z
m-60 -184 c3 -8 2 -14 -2 -14 -10 0 -32 22 -32 32 0 12 28 -2 34 -18z m36 -24
c0 -5 -4 -10 -10 -10 -5 0 -10 5 -10 10 0 6 5 10 10 10 6 0 10 -4 10 -10z m10
-50 c0 -5 -4 -10 -10 -10 -5 0 -10 5 -10 10 0 6 5 10 10 10 6 0 10 -4 10 -10z
m0 -130 c0 -5 -4 -10 -10 -10 -5 0 -10 5 -10 10 0 6 5 10 10 10 6 0 10 -4 10
-10z"/>
<path d="M3990 610 c0 -5 5 -10 10 -10 6 0 10 5 10 10 0 6 -4 10 -10 10 -5 0
-10 -4 -10 -10z"/>
<path d="M4107 601 c-3 -12 -1 -21 3 -21 15 0 23 21 12 32 -6 6 -11 2 -15 -11z"/>
<path d="M4810 571 c0 -11 39 -26 47 -17 8 8 3 12 -24 20 -13 4 -23 3 -23 -3z"/>
<path d="M458 553 c7 -3 16 -2 19 1 4 3 -2 6 -13 5 -11 0 -14 -3 -6 -6z"/>
<path d="M471 506 c-1 -8 45 -56 55 -56 2 0 4 9 4 20 0 14 -7 20 -24 20 -13 0
-27 6 -29 13 -3 6 -6 8 -6 3z"/>
<path d="M540 428 c0 -4 7 -8 15 -8 8 0 15 4 15 8 0 5 -7 9 -15 9 -8 0 -15 -4
-15 -9z"/>
<path d="M0 361 c0 -42 5 -54 42 -97 57 -64 100 -103 116 -104 6 0 12 -4 12
-9 0 -5 15 -26 34 -45 18 -20 32 -36 30 -36 -2 0 5 -9 16 -20 11 -11 24 -20
29 -20 5 0 11 -7 15 -15 5 -13 41 -15 246 -15 153 0 240 4 240 10 0 6 -5 10
-11 10 -5 0 -7 5 -4 11 4 5 -10 3 -30 -6 -25 -10 -42 -12 -49 -6 -7 6 -30 12
-51 14 -34 4 -40 7 -37 26 2 15 -2 21 -17 21 -10 0 -22 -6 -24 -12 -3 -7 -6
-3 -6 10 -1 12 -7 22 -13 22 -9 0 -9 3 1 9 16 10 8 41 -11 40 -10 0 -10 -2 0
-6 23 -9 12 -20 -23 -20 -30 0 -34 3 -29 19 4 14 1 17 -18 16 -13 -2 -29 -10
-36 -18 -10 -11 -15 -12 -18 -2 -3 6 -12 12 -20 12 -7 0 -11 6 -8 14 3 8 0 17
-7 22 -7 4 -15 2 -17 -4 -7 -23 -23 -12 -20 15 2 21 -2 28 -23 34 -23 6 -26 4
-22 -12 3 -11 0 -19 -6 -19 -6 0 -11 5 -11 10 0 6 -6 10 -14 10 -8 0 -23 10
-33 23 -10 13 -22 25 -28 26 -34 11 -57 27 -115 81 -36 33 -68 60 -72 60 -5 0
-8 -22 -8 -49z"/>
<path d="M570 355 c0 -8 5 -15 10 -15 6 0 10 7 10 15 0 8 -4 15 -10 15 -5 0
-10 -7 -10 -15z"/>
<path d="M3675 339 c-4 -6 -5 -12 -2 -15 2 -3 7 2 10 11 7 17 1 20 -8 4z"/>
<path d="M696 285 c4 -8 8 -15 10 -15 2 0 4 7 4 15 0 8 -4 15 -10 15 -5 0 -7
-7 -4 -15z"/>
<path d="M1435 240 c3 -5 8 -10 11 -10 2 0 4 5 4 10 0 6 -5 10 -11 10 -5 0 -7
-4 -4 -10z"/>
<path d="M547 211 c-4 -17 -3 -21 5 -13 5 5 8 16 6 23 -3 8 -7 3 -11 -10z"/>
<path d="M570 210 c0 -5 5 -10 10 -10 6 0 10 5 10 10 0 6 -4 10 -10 10 -5 0
-10 -4 -10 -10z"/>
<path d="M1375 210 c3 -5 8 -10 11 -10 2 0 4 5 4 10 0 6 -5 10 -11 10 -5 0 -7
-4 -4 -10z"/>
<path d="M427 191 c-3 -12 -1 -21 3 -21 14 0 19 15 11 29 -6 9 -10 7 -14 -8z"/>
<path d="M460 201 c0 -5 7 -11 14 -14 10 -4 13 -1 9 9 -6 15 -23 19 -23 5z"/>
<path d="M870 200 c0 -5 7 -10 15 -10 8 0 15 5 15 10 0 6 -7 10 -15 10 -8 0
-15 -4 -15 -10z"/>
<path d="M3590 200 c0 -5 5 -10 11 -10 5 0 7 5 4 10 -3 6 -8 10 -11 10 -2 0
-4 -4 -4 -10z"/>
<path d="M4880 185 c0 -8 2 -15 4 -15 2 0 6 7 10 15 3 8 1 15 -4 15 -6 0 -10
-7 -10 -15z"/>
<path d="M4750 180 c0 -18 8 -30 33 -49 26 -20 21 3 -8 36 -16 18 -24 23 -25
13z"/>
<path d="M1067 152 c-18 -20 -22 -32 -9 -32 10 1 45 50 34 50 -5 0 -16 -8 -25
-18z"/>
<path d="M4736 121 c-4 -5 3 -15 15 -21 28 -15 34 -7 10 14 -12 11 -21 13 -25
7z"/>
<path d="M4645 107 c-10 -35 -15 -71 -7 -59 5 7 15 12 23 10 21 -4 24 48 4 56
-9 3 -17 0 -20 -7z m25 -17 c0 -5 -5 -10 -11 -10 -5 0 -7 5 -4 10 3 6 8 10 11
10 2 0 4 -4 4 -10z"/>
<path d="M4691 94 c0 -11 3 -14 6 -6 3 7 2 16 -1 19 -3 4 -6 -2 -5 -13z"/>
<path d="M1520 80 c0 -5 5 -10 11 -10 5 0 7 5 4 10 -3 6 -8 10 -11 10 -2 0 -4
-4 -4 -10z"/>
<path d="M3935 80 c-3 -5 -1 -10 4 -10 6 0 11 5 11 10 0 6 -2 10 -4 10 -3 0
-8 -4 -11 -10z"/>
<path d="M4710 80 c0 -5 7 -10 16 -10 8 0 12 5 9 10 -3 6 -10 10 -16 10 -5 0
-9 -4 -9 -10z"/>
<path d="M4125 70 c4 -6 11 -8 16 -5 14 9 11 15 -7 15 -8 0 -12 -5 -9 -10z"/>
<path d="M4558 63 c7 -3 16 -2 19 1 4 3 -2 6 -13 5 -11 0 -14 -3 -6 -6z"/>
<path d="M735 50 c3 -5 8 -10 11 -10 2 0 4 5 4 10 0 6 -5 10 -11 10 -5 0 -7
-4 -4 -10z"/>
<path d="M4565 10 c-3 -5 -2 -10 4 -10 5 0 13 5 16 10 3 6 2 10 -4 10 -5 0
-13 -4 -16 -10z"/>
</g>
</svg>
